<?xml version="1.0" encoding="UTF-8"?>
<svg width="50px" height="49px" viewBox="0 0 50 49" version="1.1" xmlns="http://www.w3.org/2000/svg" xmlns:xlink="http://www.w3.org/1999/xlink">
    <title>EEACAAD4-335E-4022-A77C-BA25D119BDA4</title>
    <g id="home-+-interactions" stroke="none" stroke-width="1" fill="none" fill-rule="evenodd">
        <g id="m-1-home" transform="translate(-291.000000, -10.000000)" fill-rule="nonzero">
            <g id="noun_menu_2591825" transform="translate(291.000000, 10.000000)">
                <path d="M46.6049467,24.4970151 C46.5687072,33.6535132 40.7583172,42.1335419 32.0970914,45.2622134 C27.7241991,46.8446689 22.9285134,47.0258661 18.4469028,45.7574858 C14.1344096,44.5374247 10.3051089,41.9885841 7.44219328,38.5579173 C1.51100515,31.4187479 0.810376004,20.9334703 5.61814153,13.0211928 C10.3775878,5.19347408 19.8240015,1.00177901 28.8234621,2.81375094 C37.8712419,4.63780269 44.9258527,12.042728 46.3633504,21.1509069 C46.5445476,22.2622497 46.6049467,23.3856723 46.6049467,24.4970151 C46.6049467,26.0553109 49.0209092,26.0553109 49.0209092,24.4970151 C49.0088294,19.4597331 47.4626134,14.4586906 44.5272188,10.3515542 C41.6280637,6.29273705 37.5813264,3.18822514 32.894359,1.4608119 C23.3150674,-2.07857328 12.1170809,0.977619382 5.64230116,8.85365738 C2.41699112,12.7795966 0.472141243,17.5752823 0.0735074177,22.6488037 C-0.325126408,27.6981655 0.907014507,32.8562456 3.54041372,37.1928984 C6.07717442,41.3725137 9.89439529,44.8031805 14.3639261,46.8084295 C19.0992127,48.9344765 24.3901708,49.5384672 29.475772,48.5116831 C39.3087397,46.5305938 47.2330969,38.255922 48.7309937,28.3263158 C48.9242707,27.0579354 49.032989,25.7895551 49.032989,24.4970151 C49.032989,22.9387192 46.6170265,22.9387192 46.6049467,24.4970151 Z" id="Path" fill="#3FB79A"></path>
                <path d="M12.8901889,25.7049964 C15.4994285,25.7049964 18.0965882,25.7049964 20.7058278,25.7049964 C24.8492036,25.7049964 29.0046593,25.7049964 33.1480351,25.7049964 C34.1023403,25.7049964 35.0445657,25.7049964 35.9988709,25.7049964 C37.5571668,25.7049964 37.5571668,23.2890338 35.9988709,23.2890338 C33.3896314,23.2890338 30.7924716,23.2890338 28.183232,23.2890338 C24.0398562,23.2890338 19.8844006,23.2890338 15.7410247,23.2890338 C14.7867195,23.2890338 13.8444941,23.2890338 12.8901889,23.2890338 C11.331893,23.2890338 11.331893,25.7049964 12.8901889,25.7049964 L12.8901889,25.7049964 Z" id="Path" fill="#26705E"></path>
                <path d="M12.8901889,17.2974466 C15.4994285,17.2974466 18.0965882,17.2974466 20.7058278,17.2974466 C24.8492036,17.2974466 29.0046593,17.2974466 33.1480351,17.2974466 C34.1023403,17.2974466 35.0445657,17.2974466 35.9988709,17.2974466 C37.5571668,17.2974466 37.5571668,14.881484 35.9988709,14.881484 C33.3896314,14.881484 30.7924716,14.881484 28.183232,14.881484 C24.0398562,14.881484 19.8844006,14.881484 15.7410247,14.881484 C14.7867195,14.881484 13.8444941,14.881484 12.8901889,14.881484 C11.331893,14.881484 11.331893,17.2974466 12.8901889,17.2974466 L12.8901889,17.2974466 Z" id="Path" fill="#26705E"></path>
                <path d="M13.0713861,34.1125461 C15.6806257,34.1125461 18.2777854,34.1125461 20.887025,34.1125461 C25.0304008,34.1125461 29.1858565,34.1125461 33.3292323,34.1125461 C34.2835375,34.1125461 35.2257629,34.1125461 36.1800681,34.1125461 C37.738364,34.1125461 37.738364,31.6965836 36.1800681,31.6965836 C33.5708286,31.6965836 30.9736688,31.6965836 28.3644292,31.6965836 C24.2210534,31.6965836 20.0655977,31.6965836 15.9222219,31.6965836 C14.9679167,31.6965836 14.0256913,31.6965836 13.0713861,31.6965836 C11.52517,31.6965836 11.52517,34.1125461 13.0713861,34.1125461 L13.0713861,34.1125461 Z" id="Path" fill="#26705E"></path>
            </g>
        </g>
    </g>
</svg>