<?xml version="1.0" encoding="UTF-8"?>
<svg width="49px" height="49px" viewBox="0 0 49 49" version="1.1" xmlns="http://www.w3.org/2000/svg" xmlns:xlink="http://www.w3.org/1999/xlink">
    <title>9CC0C764-AD61-4428-8C86-D8E7025E7DC9</title>
    <g id="home-+-interactions" stroke="none" stroke-width="1" fill="none" fill-rule="evenodd">
        <g id="m-1b-navigation" transform="translate(-291.000000, -10.000000)" fill-rule="nonzero">
            <g id="noun_Close_3894620" transform="translate(291.000000, 10.000000)">
                <path d="M24.5,0 C10.9690236,0 0,10.9690236 0,24.5 C0,38.0309764 10.9690236,49 24.5,49 C38.0309764,49 49,38.0309764 49,24.5 C49,10.9690236 38.0309764,0 24.5,0 Z M24.5,45.7333333 C12.7731538,45.7333333 3.26666667,36.2268462 3.26666667,24.5 C3.26666667,12.7731538 12.7731538,3.26666667 24.5,3.26666667 C36.2268462,3.26666667 45.7333333,12.7731538 45.7333333,24.5 C45.7333333,30.1314301 43.4962564,35.5322116 39.514234,39.514234 C35.5322116,43.4962564 30.1314301,45.7333333 24.5,45.7333333 Z" id="Shape" fill="#3FB79A"></path>
                <path d="M26.803,24.5 L35.4433333,15.8596667 C35.9983021,15.2116249 35.9609894,14.2456162 35.3576866,13.6423134 C34.7543838,13.0390106 33.7883751,13.0016979 33.1403333,13.5566667 L24.5,22.197 L15.8596667,13.5403333 C15.2116249,12.9853646 14.2456162,13.0226773 13.6423134,13.6259801 C13.0390106,14.2292829 13.0016979,15.1952915 13.5566667,15.8433333 L22.197,24.5 L13.5403333,33.1403333 C13.0742189,33.5395035 12.8711862,34.16626 13.0147101,34.7629177 C13.1582341,35.3595753 13.6240914,35.8254326 14.220749,35.9689566 C14.8174066,36.1124805 15.4441632,35.9094477 15.8433333,35.4433333 L24.5,26.803 L33.1403333,35.4433333 C33.7883751,35.9983021 34.7543838,35.9609894 35.3576866,35.3576866 C35.9609894,34.7543838 35.9983021,33.7883751 35.4433333,33.1403333 L26.803,24.5 Z" id="Path" fill="#26705E"></path>
            </g>
        </g>
    </g>
</svg>