<?xml version="1.0" encoding="UTF-8"?>
<svg width="49px" height="49px" viewBox="0 0 49 49" version="1.1" xmlns="http://www.w3.org/2000/svg" xmlns:xlink="http://www.w3.org/1999/xlink">
    <title>00FF194F-ED06-4B0C-B6FD-6B6C3618086E</title>
    <g id="home-+-interactions" stroke="none" stroke-width="1" fill="none" fill-rule="evenodd">
        <g id="1-home" transform="translate(-1365.000000, -13.000000)">
            <g id="basket" transform="translate(1365.000000, 13.000000)">
                <circle id="Oval" stroke="#3FB79A" stroke-width="2" fill="#FFFFFF" cx="24.5" cy="24.5" r="23.5"></circle>
                <g id="Group-2" transform="translate(10.000000, 14.000000)" fill="#26705E" fill-rule="nonzero">
                    <path d="M22.3982315,0 L27.4503319,0 C27.9609808,0.160784803 28.4263058,0.256064686 28.7465945,0.717576619 C29.2935025,1.55425309 28.9218468,2.67676921 27.951916,2.98345134 C26.6465886,3.26929098 25.1932033,3.0102488 23.8637032,3.12934866 C23.4950691,3.16210112 23.3651407,3.67125299 23.2201043,3.94816015 C21.5340564,8.12261002 19.8057063,12.2732399 18.1105936,16.4417348 C17.8869959,16.9300442 17.7177868,17.3945336 17.2403754,17.6982383 C16.5182151,18.1537952 15.5059821,17.900708 15.0920241,17.1622889 C14.72339,16.4953297 15.0043979,15.8313481 15.2491468,15.1852313 C17.1708788,10.5194946 19.0805244,5.81207286 21.0113212,1.15229108 C21.3074371,0.443646955 21.6609632,0.208424744 22.3982315,0 Z" id="Path"></path>
                    <path d="M1.78037378,3.25925926 C6.08319311,3.26224376 10.3710513,3.27418177 14.6738706,3.26821276 C15.4967325,3.27119727 16.328571,3.5278644 16.52905,4.42619936 C16.7564591,5.4916664 16.0443096,6.30941982 14.9760853,6.33031133 C11.2687188,6.37209435 7.55237551,6.28554381 3.84500892,6.33329583 C4.59904959,8.28814434 5.38600472,10.2400083 6.33154777,12.1112908 C6.63077025,11.4547005 6.84920267,10.5324895 7.41772539,10.0460157 C8.20468052,9.3834564 9.52125945,9.75950359 9.79355191,10.7622961 C10.0538755,11.6367551 9.39259379,12.6992376 9.10234798,13.516991 C8.5876853,14.7048226 8.18074272,15.9463753 7.61820445,17.1133154 C7.19630075,18.0235883 5.83783067,18.1966894 5.16158786,17.4923471 C4.87134205,17.1700209 4.70377745,16.7223457 4.53322064,16.331376 C3.39916742,13.475208 2.23818418,10.630978 1.07720094,7.78674808 C0.694196164,6.82573859 0.263315786,5.95127964 0,4.94550262 L0,4.46798238 C0.302214709,3.58755443 0.87073743,3.27418177 1.78037378,3.25925926 Z" id="Path"></path>
                    <path d="M12.719978,9.83345297 C13.9653977,9.52576736 15.2175859,10.5434967 14.848698,11.65294 C14.1650709,13.4014226 13.2953077,15.108486 12.4932304,16.818508 C12.1581854,17.6173071 11.3391866,18.0877111 10.3611261,17.874698 C9.41013989,17.6646434 8.92957035,16.720877 9.180008,15.9339118 C9.64027179,14.7002109 10.2866717,13.5197632 10.8180056,12.3067719 C11.2681165,11.469512 11.56255,10.1056364 12.719978,9.83345297 Z" id="Path"></path>
                    <path d="M7.99176043,19.4414239 C8.70921973,20.5235344 8.03358541,21.7129095 6.82709555,22 L6.40562843,22 C5.40182887,21.7160643 4.71332532,20.8579476 5.06401171,19.81685 C5.52730381,18.586462 7.22282423,18.3435393 7.99176043,19.4414239 Z" id="Path"></path>
                    <path d="M11.3952518,19.5670722 C11.9697712,20.6620475 11.269374,21.7380895 10.1138801,22 L9.70074259,22 C8.6098014,21.6939118 7.95459115,20.6999141 8.45810247,19.6333387 C9.06167053,18.4689414 10.7335863,18.4405415 11.3952518,19.5670722 Z" id="Path"></path>
                    <path d="M14.1176972,18.9263798 C15.2897934,18.3562804 16.6223161,19.1670884 16.5699319,20.433976 C16.5306437,21.650188 15.1424628,22.416655 14.052217,21.7578734 C12.9717932,21.1180952 12.9914373,19.509148 14.1176972,18.9263798 Z" id="Path"></path>
                </g>
            </g>
        </g>
    </g>
</svg>