<?xml version="1.0" encoding="UTF-8"?>
<svg width="30px" height="30px" viewBox="0 0 30 30" version="1.1" xmlns="http://www.w3.org/2000/svg" xmlns:xlink="http://www.w3.org/1999/xlink">
    <title>37AA16E5-5907-4575-922C-3FB1A2B328B9</title>
    <g id="home-+-interactions" stroke="none" stroke-width="1" fill="none" fill-rule="evenodd">
        <g id="1-home" transform="translate(-1137.000000, -2667.000000)" fill="#FFFFFF" fill-rule="nonzero">
            <g id="recipes" transform="translate(225.000000, 2112.000000)">
                <g id="text-box" transform="translate(758.000000, 215.000000)">
                    <g id="noun_Time_1983655" transform="translate(154.000000, 340.000000)">
                        <path d="M14.9982995,30 C6.58768847,30 0,23.5585535 0,15.334996 C0,7.02301326 6.86996939,0 14.9982995,0 C23.2694706,0 30,6.73052942 30,15.0017005 C30,23.2728716 23.2694706,30 14.9982995,30 Z M14.9982995,1.67668065 C7.77462873,1.67668065 1.67327967,7.93107357 1.67327967,15.334996 C1.67327967,22.6164834 7.52635756,28.3233194 14.9982995,28.3233194 C22.3444054,28.3233194 28.3199198,22.3478064 28.3199198,14.9982995 C28.3233194,7.65219363 22.3444054,1.67668065 14.9982995,1.67668065 Z" id="Shape"></path>
                        <path d="M22.7219136,18.6067339 C22.6538941,18.6067339 22.5892756,18.599932 22.5212561,18.5897291 L14.5765786,17.1375128 C14.0460265,17.0388845 13.6583154,16.5763519 13.6583154,16.0389978 L13.6583154,8.43781884 C13.6583154,7.8188414 14.1582587,7.31889808 14.7772361,7.31889808 C15.3962136,7.31889808 15.8961569,7.8188414 15.8961569,8.43781884 L15.8961569,15.1037297 L22.9225711,16.3858973 C23.5313457,16.4981295 23.9326607,17.0796962 23.8204285,17.6884707 C23.7218002,18.2292257 23.2524657,18.6067339 22.7219136,18.6067339 Z" id="Path"></path>
                    </g>
                </g>
            </g>
        </g>
    </g>
</svg>