<?xml version="1.0" encoding="UTF-8"?>
<svg width="30px" height="30px" viewBox="0 0 30 30" version="1.1" xmlns="http://www.w3.org/2000/svg" xmlns:xlink="http://www.w3.org/1999/xlink">
    <title>1152C248-7A23-48B5-88B4-4AB27A3DBD02</title>
    <g id="home-+-interactions" stroke="none" stroke-width="1" fill="none" fill-rule="evenodd">
        <g id="1-home" transform="translate(-225.000000, -3429.000000)" fill="#FFFFFF" fill-rule="nonzero">
            <g id="footer" transform="translate(0.000000, 2988.000000)">
                <g id="main" transform="translate(0.000000, 185.000000)">
                    <g id="column" transform="translate(225.000000, 50.000000)">
                        <g id="email" transform="translate(0.000000, 206.000000)">
                            <g id="noun_Mail_2278341" transform="translate(-0.000000, 0.000000)">
                                <path d="M21.8041656,9.33748926 L8.1961457,9.33748926 C7.65565631,9.3867717 7.21366236,9.78905104 7.11386056,10.3225275 C7.10495889,10.3587346 7.10054469,10.3958889 7.10054469,10.4331742 L7.10054469,19.5660354 C7.12314845,20.1615925 7.60059937,20.6392704 8.1961457,20.6621566 L21.803673,20.6621566 C22.4090408,20.6621566 22.8997942,20.1714032 22.8997942,19.5660354 L22.8997942,10.4331742 C22.8997942,9.82806287 22.4092769,9.33748926 21.8041656,9.33748926 Z M21.4492686,10.2498422 L15.0463722,15.6680663 L8.65677702,10.2498422 L21.4492686,10.2498422 Z M21.9865545,19.5660213 C21.9865545,19.6669787 21.9046867,19.7488325 21.8037293,19.7488325 L8.19800365,19.7488325 C8.14629066,19.7453136 8.01295446,19.6543303 8.01295446,19.5660213 L8.01295446,10.5584311 L12.9221561,14.7215102 L9.07253599,18.2290982 C8.94026574,18.3504351 8.93106243,18.5559029 9.05195491,18.6885795 C9.17284738,18.821256 9.37828316,18.8311486 9.51136453,18.7107019 L13.2828662,15.2744057 C13.3631674,15.2012214 13.4853251,15.1990518 13.5681744,15.2693386 L14.8349598,16.3436289 C14.9564116,16.4470671 15.1349816,16.4470671 15.2564334,16.3436289 L16.7168962,15.1079079 L20.6710542,18.7106878 C20.7570133,18.7895416 20.8785727,18.816418 20.989763,18.7811534 C21.1009534,18.7458887 21.1848031,18.6538656 21.2096034,18.5398839 C21.2344036,18.4259022 21.196369,18.3073594 21.1098827,18.2290841 L17.2184728,14.6835348 L21.9865545,10.6491048 L21.9865545,19.5660213 Z" id="Shape"></path>
                                <path d="M15.0009087,0 C8.93406243,0 3.46442916,3.65405033 1.14249121,9.2589792 C-1.17944674,14.8639081 0.103576761,21.3156413 4.39328965,25.6057446 C8.68300253,29.895848 15.1346189,31.1794587 20.7397591,28.858031 C26.3448993,26.5366032 30,21.0673026 30,15.0004563 C30,11.0222684 28.4200281,7.2069443 25.6071525,4.39381264 C22.7942769,1.58068098 18.9790966,0 15.0009087,0 Z M15.0009087,28.9961407 C7.27131341,28.9961407 1.00523838,22.7300657 1.00523838,15.0004704 C1.00523838,7.27087513 7.27131341,1.0048001 15.0009087,1.0048001 C22.730504,1.0048001 28.996579,7.27087513 28.996579,15.0004704 C28.996579,18.7123528 27.5220439,22.272207 24.8973453,24.8969029 C22.2726468,27.5215988 18.7127911,28.9961407 15.0009087,28.9961407 L15.0009087,28.9961407 Z" id="Shape"></path>
                            </g>
                        </g>
                    </g>
                </g>
            </g>
        </g>
    </g>
</svg>