<?xml version="1.0" encoding="UTF-8"?>
<svg width="206px" height="50px" viewBox="0 0 206 50" version="1.1" xmlns="http://www.w3.org/2000/svg" xmlns:xlink="http://www.w3.org/1999/xlink">
    <title>E23D0760-C411-4D12-81ED-58D41E3F6153</title>
    <g id="home-+-interactions" stroke="none" stroke-width="1" fill="none" fill-rule="evenodd">
        <g id="1-home" transform="translate(-225.000000, -3223.000000)" fill="#FFFFFF" fill-rule="nonzero">
            <g id="footer" transform="translate(0.000000, 2988.000000)">
                <g id="main" transform="translate(0.000000, 185.000000)">
                    <g id="labayk" transform="translate(225.000000, 50.000000)">
                        <g id="Group">
                            <path d="M51.0432706,0 L62.4891276,0 C63.6460354,0.370475223 64.7002591,0.590016096 65.4258936,1.6534172 C66.6649487,3.58126049 65.8229389,6.1677264 63.6254986,6.87437359 C60.6681958,7.53299621 57.3754582,6.93611946 54.3633906,7.21054555 C53.5282264,7.28601272 53.2338652,8.45918426 52.905276,9.09722493 C49.0854266,18.7158594 45.1697387,28.2796087 41.3293524,37.8845219 C40.8227774,39.0096689 40.4394234,40.0799306 39.3578172,40.7797172 C37.7217169,41.829397 35.4284381,41.2462415 34.4905898,39.5447998 C33.6554256,38.0080136 34.2920671,36.4780882 34.8465614,34.9893266 C39.2003683,24.2386845 43.5267927,13.3919933 47.9011364,2.65507243 C48.572006,1.02223719 49.3729422,0.48024566 51.0432706,0 Z" id="Path"></path>
                            <path d="M4.05188516,7.97101449 C13.8445085,7.97779745 23.6030823,8.00492928 33.3957056,7.99136337 C35.2684256,7.99814632 37.1615753,8.58148071 37.617838,10.6231511 C38.1353897,13.0446671 36.5146357,14.9031976 34.0835046,14.9506783 C25.6460496,15.0456397 17.1881649,14.8489339 8.75070997,14.9574613 C10.4668025,19.4002988 12.2578038,23.8363533 14.4097294,28.089268 C15.0907185,26.5970172 15.5878406,24.5010832 16.8817198,23.395461 C18.6727212,21.8896444 21.6690732,22.7442971 22.2887733,25.023371 C22.8812338,27.0107777 21.3762479,29.4255107 20.7156885,31.2840412 C19.5443872,33.9836585 18.6182421,36.805369 17.3379825,39.4575056 C16.3777879,41.5263078 13.2860974,41.9197194 11.747062,40.3189413 C11.0865026,39.5863818 10.7051487,38.5689381 10.3169849,37.6803706 C7.7360362,31.1890798 5.09379849,24.7249208 2.45156077,18.2607618 C1.57989472,16.0766493 0.59927041,14.0892426 0,11.8033858 L0,10.7181125 C0.687798993,8.71713988 1.98167829,8.00492928 4.05188516,7.97101449 Z" id="Path"></path>
                            <path d="M29.6976337,22.5925032 C32.1894169,21.8810563 34.6947423,24.2343039 33.956687,26.7996175 C32.5889147,30.8425516 30.8487292,34.7897141 29.2439666,38.7437174 C28.5736228,40.5907431 26.9350045,41.6784361 24.9781422,41.1858959 C23.0754491,40.7001965 22.1139458,38.5179698 22.6150109,36.6983074 C23.5358873,33.8456787 24.8291769,31.1161851 25.8922474,28.3114423 C26.7928104,26.3754856 27.3819004,23.2218602 29.6976337,22.5925032 Z" id="Path"></path>
                            <path d="M17.4886004,44.3114663 C19.0586373,46.7173443 17.5801272,49.3617058 14.9399306,50 L14.0176219,50 C11.8209783,49.3687201 10.3143061,47.4608518 11.0817232,45.1461586 C12.0955587,42.4106122 15.8059151,41.8705172 17.4886004,44.3114663 Z" id="Path"></path>
                            <path d="M25.6618338,44.5908226 C26.919071,47.0253032 25.3863717,49.4176891 22.8577709,50 L21.9536902,50 C19.5663521,49.319468 18.1325365,47.1094928 19.2343849,44.7381543 C20.5551903,42.1493263 24.213892,42.0861841 25.6618338,44.5908226 Z" id="Path"></path>
                            <path d="M33.0699892,43.1663582 C35.6349211,41.8988447 38.550919,43.7015305 38.4362852,46.5182272 C38.3503098,49.2222559 35.3125134,50.9263574 32.9266969,49.4616751 C30.5623743,48.0392433 30.605362,44.4620386 33.0699892,43.1663582 Z" id="Path"></path>
                        </g>
                        <path d="M73.0162107,13.0028758 C75.3441405,12.995933 77.6720702,13.0028758 80,13.0098185 C80,23.0073398 80,32.9979184 80,42.9954396 C77.6645365,43.0023824 75.3366067,43.0023824 73.0011432,42.9884969 C73.0086769,32.9979184 72.9860757,23.0003971 73.0162107,13.0028758 Z" id="Path"></path>
                        <path d="M111.052984,13 C113.167767,13.0339081 115.275727,13.0406898 117.383688,13.0271265 C117.404153,16.0720783 117.410975,19.11703 117.383688,22.1619817 C118.986829,21.1854271 120.460355,20.2224356 122.370481,19.9443888 C126.668265,19.3069156 131.470867,21.3753127 133.517431,25.2950947 C136.594098,30.9577555 134.827232,39.0889295 128.728472,41.9779038 C124.826357,43.9310131 120.726408,42.906987 117.370044,40.4113473 L117.008484,42.0457201 C115.023318,42.1881343 113.017685,42.0864098 111.025697,42.1067547 C111.018875,32.4090242 110.957478,22.7045121 111.052984,13 Z M127.26859,28.1433791 C125.720023,26.0885453 122.936697,25.4917619 120.576327,26.4276268 C117.397331,27.6551018 116.271721,31.7037347 118.147738,34.4774213 C119.962358,37.2104181 123.905404,37.6037526 126.415855,35.5963902 C128.646609,33.80604 128.994525,30.4016618 127.26859,28.1433791 Z" id="Combined-Shape"></path>
                        <path d="M185.005205,13.0051909 C187.177559,12.9982697 189.356854,12.9982697 191.529208,13.0051909 C191.543088,18.2722659 191.529208,23.5393408 191.536148,28.8064158 C193.722383,26.0725201 195.880856,23.3247819 197.921342,20.4801462 C200.614228,20.4870674 203.307114,20.4870674 206,20.5424375 L206,20.5701225 C203.640254,23.1655931 201.45402,25.90641 199.087334,28.5018806 C198.580682,29.110951 197.935223,29.7546277 197.699248,30.5159657 C198.677848,32.6269485 200.246385,34.4749235 201.474841,36.4544024 C202.987854,38.5584639 204.126084,41.0362731 206,42.7458231 L206,42.8773269 C203.320995,42.9396182 200.669751,43.1264921 197.990746,42.8634844 C195.978022,39.1121643 193.694621,35.5061905 191.536148,31.8379254 C191.529208,35.5131118 191.556969,39.1882981 191.56391,42.8634844 C189.377675,42.8634844 187.19144,42.8634844 185.005205,42.8634844 C184.998265,32.9107199 184.998265,22.9579554 185.005205,13.0051909 Z" id="Path"></path>
                        <path d="M93.9951625,20.0640847 C96.3654331,20.2855168 98.2996301,21.359127 100.212727,22.6273291 L100.536265,20.9498131 C102.674432,20.7753515 104.8548,20.9296829 107,20.9296829 C106.992967,28.0356405 107,35.1348879 106.992967,42.2408455 C104.812599,42.2475555 102.632231,42.2542656 100.451864,42.2475555 L100.283061,40.2278263 L100.283061,40.2278263 C98.4051317,41.7174605 96.5342357,42.9521122 93.9881291,42.9990827 C90.1267685,43.0460531 85.7660333,41.2880164 83.7755688,38.0000852 C82.1438098,35.3361899 81.686636,31.9744479 82.2000774,28.9616293 C83.0792578,23.8150104 88.4176416,19.4132085 93.9951625,20.0640847 Z M99.1506768,28.0557707 C97.5118844,26.1165622 94.4734367,25.6133075 92.117233,26.5392963 C88.9451499,27.7873681 87.8408992,31.665785 89.6695946,34.3833608 C91.5686244,37.2150077 96.062995,37.6511619 98.6231685,35.4032905 C100.726168,33.5446028 100.944205,30.1761508 99.1506768,28.0557707 Z" id="Combined-Shape"></path>
                        <path d="M153.181819,22.7919149 L153.490461,21.0050675 C155.650955,20.8438481 157.832492,20.9781976 160,20.9513277 L160,42.2658656 L160,42.2658656 C157.804434,42.2725831 155.615882,42.2793005 153.420315,42.2725831 C153.371213,41.5806835 153.322111,40.8955013 153.280023,40.2036017 C149.436028,44.1870625 142.659935,43.6765346 138.710721,40.1767319 C133.86364,35.7767879 133.716334,27.4874277 138.5564,23.0337439 C142.48457,19.4533315 149.31678,18.6405174 153.181819,22.7919149 Z M152.087543,28.0315429 C150.404042,26.110346 147.415827,25.6334055 145.058925,26.594004 C141.965491,27.8568887 140.871215,31.6858476 142.645906,34.3728363 C144.511787,37.2411967 148.952022,37.6912673 151.54742,35.4879366 C153.707913,33.6339144 153.939395,30.1609815 152.087543,28.0315429 Z" id="Combined-Shape"></path>
                        <path d="M168.09538,20 C169.596721,24.5592287 171.015797,29.1391185 172.517139,33.6914601 C173.963636,29.1322314 175.389568,24.5730028 176.822355,20.0068871 C179.214903,20.0068871 181.607452,20.0137741 184,20.0413223 C180.304918,30.0275482 176.561848,40.0137741 172.853055,50 L165.75082,50 C166.984799,47.2107438 168.129657,44.3870523 169.34307,41.5909091 C166.566617,34.4077135 163.776453,27.231405 161,20.0482094 C163.365127,20.0344353 165.730253,20.0137741 168.09538,20 Z" id="Path"></path>
                    </g>
                </g>
            </g>
        </g>
    </g>
</svg>