<?xml version="1.0" encoding="UTF-8"?>
<svg width="30px" height="30px" viewBox="0 0 30 30" version="1.1" xmlns="http://www.w3.org/2000/svg" xmlns:xlink="http://www.w3.org/1999/xlink">
    <title>FC5F5267-3934-454E-9FF0-7948E67738AA</title>
    <g id="home-+-interactions" stroke="none" stroke-width="1" fill="none" fill-rule="evenodd">
        <g id="1-home" transform="translate(-1056.000000, -2667.000000)" fill="#FFFFFF" fill-rule="nonzero">
            <g id="recipes" transform="translate(225.000000, 2112.000000)">
                <g id="text-box" transform="translate(758.000000, 215.000000)">
                    <g id="noun_fork-and-knife_3649168" transform="translate(73.000000, 340.000000)">
                        <path d="M18.5576471,17.3329412 L18.4941176,17.4282353 C18.5329412,17.3682353 18.5294118,17.2835294 18.4764706,17.2305882 L17.6858824,16.4294118 C17.6576471,16.4011765 17.6188235,16.3835294 17.5729412,16.3835294 C17.5305882,16.3835294 17.4917647,16.4011765 17.4635294,16.4294118 L17.4811765,16.4117647 L17.4211765,16.3482353 C17.1741176,16.0835294 16.6623529,15.54 15.9811765,14.8305882 C15.7341176,14.5729412 15.4658824,14.2941176 15.18,14.0011765 C14.3470588,13.1435294 13.3658824,12.1482353 12.3388235,11.1423529 C9.3,8.16352941 7.14,6.32470588 5.91529412,5.67176471 L5.78823529,5.60470588 L5.78117647,5.74941176 C5.76705882,6.04588235 5.81647059,6.9 6.59647059,8.47058824 C7.37294118,10.0376471 9.03882353,12.6282353 12.6035294,16.4505882 C12.9141176,16.7823529 13.2352941,17.1247059 13.5741176,17.4741176 C13.8776471,17.7882353 14.1917647,18.1094118 14.52,18.4411765 C14.5517647,18.4729412 14.5941176,18.4905882 14.6364706,18.4905882 C14.6788235,18.4905882 14.7211765,18.4729412 14.7529412,18.4447059 L15.18,18.0211765 C15.3988235,17.8058824 15.6988235,17.6823529 16.0094118,17.6823529 C16.0552941,17.6823529 16.0976471,17.6858824 16.1435294,17.6894118 L16.1894118,17.6929412 L16.2176471,17.6611765 C16.1611765,17.7211765 16.1611765,17.82 16.2211765,17.88 L17.0117647,18.6811765 C17.04,18.7094118 17.0823529,18.7270588 17.1247059,18.7270588 C17.1458824,18.7270588 17.1670588,18.7235294 17.1847059,18.7164706 C17.2023529,18.7094118 17.22,18.6988235 17.2341176,18.6847059 L17.2341176,18.6847059 L17.2588235,18.7411765 C17.9929412,20.4564706 21.0423529,22.7858824 21.6494118,23.2341176 C21.7411765,23.3011765 21.7941176,23.4105882 21.7941176,23.5270588 L21.7905882,24.0105882 C21.7905882,24.1058824 21.8258824,24.1976471 21.8929412,24.2682353 C21.96,24.3352941 22.0517647,24.3741176 22.1470588,24.3776471 L23.2447059,24.3847059 C23.34,24.3847059 23.4317647,24.3458824 23.4988235,24.2823529 L24.0529412,23.7352941 C24.2752941,23.5164706 24.2788235,23.1564706 24.06,22.9341176 L18.5576471,17.3329412 Z" id="Path"></path>
                        <path d="M6.04235294,22.74 C5.87294118,22.9023529 5.77764706,23.1282353 5.77764706,23.3717647 C5.77764706,23.64 5.89058824,23.9082353 6.09176471,24.1023529 C6.28588235,24.2929412 6.54352941,24.3988235 6.80470588,24.3988235 C6.81176471,24.3988235 6.82235294,24.3988235 6.82941176,24.3988235 C7.07294118,24.3917647 7.29529412,24.2929412 7.45411765,24.12 C8.61529412,22.86 11.2517647,20.0011765 13.4470588,17.6011765 C13.1047059,17.2482353 12.78,16.9023529 12.4658824,16.5705882 C10.1117647,18.8258824 7.28117647,21.5470588 6.04235294,22.74 Z" id="Path"></path>
                        <path d="M16.8811765,13.8105882 C17.4352941,13.1188235 18.4482353,13.4752941 18.4588235,13.4788235 C18.4623529,13.4788235 18.4658824,13.4823529 18.4658824,13.4823529 C18.8294118,13.5776471 19.3447059,13.3447059 20.04,12.7729412 C20.5729412,12.3352941 21.2047059,11.6964706 21.9211765,10.8741176 C23.1388235,9.48 24.1941176,8.01882353 24.2047059,8.00470588 C24.2329412,7.96588235 24.2258824,7.91647059 24.1941176,7.88470588 L24.0847059,7.77882353 C24.0494118,7.74352941 23.9929412,7.74352941 23.9541176,7.77882353 L20.3011765,11.3541176 C20.2588235,11.3964706 20.1811765,11.3929412 20.1317647,11.3435294 C20.0823529,11.2941176 20.0752941,11.22 20.1141176,11.1741176 L23.52,7.34823529 C23.5517647,7.31294118 23.5517647,7.25647059 23.5164706,7.22117647 L23.4176471,7.12235294 C23.3823529,7.08705882 23.3258824,7.08705882 23.2905882,7.12235294 L19.1788235,10.9552941 C19.1329412,10.9976471 19.0588235,10.9905882 19.0094118,10.9411765 L18.9776471,10.9094118 C18.9282353,10.86 18.9211765,10.7858824 18.96,10.74 L22.7047059,6.54705882 C22.7364706,6.51176471 22.7364706,6.45529412 22.7011765,6.42 L22.6023529,6.32117647 C22.5670588,6.28588235 22.5105882,6.28588235 22.4752941,6.32117647 L18.7235294,9.80823529 C18.6776471,9.85058824 18.6035294,9.84352941 18.5541176,9.79411765 C18.5047059,9.74470588 18.4976471,9.66705882 18.5364706,9.62470588 L22.0376471,5.89764706 C22.0729412,5.86235294 22.0694118,5.80235294 22.0341176,5.76705882 L21.9247059,5.66117647 C21.8929412,5.62941176 21.84,5.62588235 21.8047059,5.65411765 C21.7905882,5.66470588 20.3541176,6.75176471 18.9847059,7.99764706 C18.18,8.73176471 17.5552941,9.37764706 17.1247059,9.92117647 C16.5670588,10.6270588 16.3447059,11.1458824 16.4470588,11.5094118 C16.4470588,11.5129412 16.4470588,11.5164706 16.4505882,11.5164706 C16.4541176,11.5270588 16.8352941,12.5329412 16.1505882,13.1011765 C16.0447059,13.1894118 15.7447059,13.4647059 15.3105882,13.8741176 C15.5929412,14.1635294 15.8576471,14.4388235 16.1011765,14.6929412 C16.5141176,14.2341176 16.7929412,13.92 16.8811765,13.8105882 Z" id="Path"></path>
                        <path d="M30,15 C30,12.9741176 29.6047059,11.0117647 28.8211765,9.16235294 C28.0658824,7.37647059 26.9858824,5.77058824 25.6058824,4.39411765 C24.2294118,3.01764706 22.6235294,1.93411765 20.8376471,1.17882353 C18.9882353,0.395294118 17.0258824,0 15,0 C12.9741176,0 11.0117647,0.395294118 9.16235294,1.17882353 C7.37647059,1.93411765 5.77058824,3.01411765 4.39411765,4.39411765 C3.01764706,5.77058824 1.93411765,7.37647059 1.17882353,9.16235294 C0.395294118,11.0117647 0,12.9741176 0,15 C0,17.0258824 0.395294118,18.9882353 1.17882353,20.8376471 C1.93411765,22.6235294 3.01411765,24.2294118 4.39411765,25.6058824 C5.77058824,26.9823529 7.37647059,28.0658824 9.16235294,28.8211765 C11.0117647,29.6047059 12.9741176,30 15,30 C17.0258824,30 18.9882353,29.6047059 20.8376471,28.8211765 C22.6235294,28.0658824 24.2294118,26.9858824 25.6058824,25.6058824 C26.9823529,24.2294118 28.0658824,22.6235294 28.8211765,20.8376471 C29.6047059,18.9882353 30,17.0258824 30,15 Z M15,28.8458824 C7.36588235,28.8458824 1.15411765,22.6341176 1.15411765,15 C1.15411765,7.36588235 7.36588235,1.15411765 15,1.15411765 C22.6341176,1.15411765 28.8458824,7.36588235 28.8458824,15 C28.8458824,22.6341176 22.6341176,28.8458824 15,28.8458824 Z" id="Shape"></path>
                    </g>
                </g>
            </g>
        </g>
    </g>
</svg>