<?xml version="1.0" encoding="UTF-8"?>
<svg width="30px" height="30px" viewBox="0 0 30 30" version="1.1" xmlns="http://www.w3.org/2000/svg" xmlns:xlink="http://www.w3.org/1999/xlink">
    <title>548AEDBF-5971-46AC-AA20-55770B9E0375</title>
    <g id="home-+-interactions" stroke="none" stroke-width="1" fill="none" fill-rule="evenodd">
        <g id="1-home" transform="translate(-305.000000, -3489.000000)" fill="#FFFFFF" fill-rule="nonzero">
            <g id="footer" transform="translate(0.000000, 2988.000000)">
                <g id="main" transform="translate(0.000000, 185.000000)">
                    <g id="column" transform="translate(225.000000, 50.000000)">
                        <g id="socials" transform="translate(0.000000, 266.000000)">
                            <g id="linkedin-icon" transform="translate(80.000000, 0.000000)">
                                <path d="M14.9999699,0 C6.71566078,0 0,6.71567426 0,15 C0,23.2843257 6.71566078,30 14.9999699,30 C23.284279,30 30,23.2843257 30,15 C30,6.71567426 23.2841585,0 14.9999699,0 Z M10.9979496,22.2518124 L7.70455326,22.2518124 L7.70455326,11.6117682 L10.9979496,11.6117682 L10.9979496,22.2518124 Z M9.33555711,10.2183753 C8.25996935,10.2183753 7.38801609,9.33931118 7.38801609,8.25510593 C7.38801609,7.1707802 8.26008985,6.29177628 9.33555711,6.29177628 C10.4110244,6.29177628 11.2829776,7.1707802 11.2829776,8.25510593 C11.2830379,9.33937142 10.4110846,10.2183753 9.33555711,10.2183753 L9.33555711,10.2183753 Z M23.3400074,22.2518124 L20.0625162,22.2518124 L20.0625162,16.6666734 C20.0625162,15.1348328 19.4806517,14.279747 18.269388,14.279747 C16.9511257,14.279747 16.2624435,15.1703183 16.2624435,16.6666734 L16.2624435,22.2518124 L13.103699,22.2518124 L13.103699,11.6117682 L16.2624435,11.6117682 L16.2624435,13.0448037 C16.2624435,13.0448037 17.2125972,11.2872176 19.4687228,11.2872176 C21.7249087,11.2872176 23.3400074,12.6648258 23.3400074,15.5146902 L23.3400074,22.2518124 L23.3400074,22.2518124 Z" id="Shape"></path>
                            </g>
                        </g>
                    </g>
                </g>
            </g>
        </g>
    </g>
</svg>