<?xml version="1.0" encoding="UTF-8"?>
<svg width="284px" height="69px" viewBox="0 0 284 69" version="1.1" xmlns="http://www.w3.org/2000/svg" xmlns:xlink="http://www.w3.org/1999/xlink">
    <title>E9FFC152-CEB1-4EA1-8540-A02D4594A87D</title>
    <g id="home-+-interactions" stroke="none" stroke-width="1" fill="none" fill-rule="evenodd">
        <g id="1-home" transform="translate(-225.000000, -130.000000)" fill="#26705E" fill-rule="nonzero">
            <g id="header-lower" transform="translate(0.000000, 81.000000)">
                <g id="labayk" transform="translate(225.000000, 49.000000)">
                    <g id="Group">
                        <path d="M70.3778428,0 L86.1592517,0 C87.7543822,0.511255808 89.207933,0.814222213 90.208429,2.28171574 C91.9168232,4.94213948 90.7558703,8.51146243 87.7260663,9.48663555 C83.648573,10.3955348 79.1085864,9.57184485 74.955584,9.95055286 C73.8040697,10.0546976 73.3982081,11.6736743 72.9451533,12.5541704 C67.6783912,25.827886 62.2794882,39.02586 56.9844102,52.2806402 C56.2859507,53.833343 55.7573868,55.3103043 54.2660814,56.2760097 C52.010246,57.7245678 48.848301,56.9198133 47.5552071,54.5718237 C46.4036928,52.4510588 47.2814865,50.3397617 48.0460165,48.2852708 C54.0489926,33.4493846 60.0142142,18.4809507 66.0455062,3.66399996 C66.9704931,1.41068732 68.0748142,0.66273901 70.3778428,0 Z" id="Path"></path>
                        <path d="M5.58669014,11 C19.0886404,11.0093605 32.5436438,11.0468024 46.0455941,11.0280814 C48.6276777,11.0374419 51.2379296,11.8424434 51.8670191,14.6599485 C52.5806131,18.0016406 50.3459371,20.5664127 46.993923,20.631936 C35.3604623,20.7629828 23.6988335,20.4915288 12.0653728,20.6412965 C14.4315004,26.7724123 16.9009114,32.8941676 19.8679602,38.7631898 C20.8068998,36.7038838 21.4923256,33.8114948 23.2763107,32.2857362 C25.7457216,30.2077092 29.8770555,31.3871299 30.7314905,34.5322519 C31.5483679,37.2748732 29.4733115,40.6072048 28.5625402,43.1719769 C26.9475642,46.8974487 25.6706065,50.7914093 23.9054002,54.4513578 C22.5814955,57.3063048 18.31871,57.8492128 16.1967067,55.640139 C15.2859354,54.6292069 14.7601293,53.2251346 14.2249337,51.9989115 C10.6663529,43.0409301 7.02326761,34.1203907 3.38018227,25.1998513 C2.17833969,22.1857761 0.826266778,19.4431548 0,16.2886724 L0,14.7909952 C0.948328915,12.029653 2.732314,11.0468024 5.58669014,11 Z" id="Path"></path>
                        <path d="M40.9467374,31.1776545 C44.3823778,30.1958577 47.8366902,33.4433394 46.8190684,36.9834721 C44.9332006,42.5627212 42.5338539,48.0098054 40.3212267,53.46633 C39.3969648,56.0152255 37.1376577,57.5162418 34.4395597,56.8365363 C31.8161495,56.1662712 30.4904404,53.1547983 31.1813029,50.6436642 C32.4509961,46.7070366 34.2341681,42.9403354 35.6999169,39.0697903 C36.9416022,36.3981702 37.7538324,32.046167 40.9467374,31.1776545 Z" id="Path"></path>
                        <path d="M24.1130703,61.1498235 C26.2778182,64.4699351 24.2392663,68.119154 20.5989952,69 L19.3273272,69 C16.2986216,68.1288337 14.2212402,65.4959755 15.2793457,62.3016989 C16.6772098,58.5266449 21.7930041,57.7813137 24.1130703,61.1498235 Z" id="Path"></path>
                        <path d="M35.3822254,61.5353353 C37.1156889,64.8949185 35.0024216,68.1964109 31.5160175,69 L30.269482,69 C26.977849,68.0608658 25.0009216,65.0111 26.5201368,61.738653 C28.3412473,58.1660702 33.3858208,58.0789341 35.3822254,61.5353353 Z" id="Path"></path>
                        <path d="M45.5965003,59.5695743 C49.1329972,57.8204057 53.1535398,60.3081121 52.9954841,64.1951535 C52.8769423,67.9267132 48.6884655,70.2783732 45.3989306,68.2571117 C42.1390312,66.2941558 42.1983021,61.3576133 45.5965003,59.5695743 Z" id="Path"></path>
                    </g>
                    <path d="M101.020842,18.0039302 C104.013895,17.9944418 107.006947,18.0039302 110,18.0134186 C110,31.6766977 110,45.3304884 110,58.9937675 C106.997261,59.0032559 104.004209,59.0032559 101.00147,58.9842791 C101.011156,45.3304884 100.982097,31.6672093 101.020842,18.0039302 Z" id="Path"></path>
                    <path d="M153.072853,17 C155.980679,17.0474714 158.879125,17.0569657 161.77757,17.0379771 C161.805711,21.3009096 161.815091,25.563842 161.77757,29.8267744 C163.98189,28.4595979 166.007988,27.1114099 168.634411,26.7221444 C174.543864,25.8296819 181.147443,28.7254378 183.961467,34.2131325 C188.191885,42.1408577 185.762443,53.5245013 177.376649,57.5690653 C172.011241,60.3034184 166.373811,58.8697818 161.75881,55.3758862 L161.261666,57.6640081 C158.532062,57.863388 155.774317,57.7209738 153.035333,57.7494566 C153.025953,44.1726339 152.941532,30.586317 153.072853,17 Z M175.369311,38.2007308 C173.240032,35.3239635 169.412958,34.4884667 166.167449,35.7986776 C161.796331,37.5171425 160.248617,43.1852286 162.82814,47.0683898 C165.323242,50.8945853 170.74493,51.4452536 174.196801,48.6349463 C177.264088,46.1284559 177.742472,41.3623266 175.369311,38.2007308 Z" id="Combined-Shape"></path>
                    <path d="M255.007188,18.0070943 C258.007106,17.9976352 261.016607,17.9976352 264.016525,18.0070943 C264.035694,25.2054301 264.016525,32.4037658 264.026109,39.6021016 C267.045195,35.8657775 270.025944,32.1105353 272.843758,28.2228665 C276.562505,28.2323255 280.281253,28.2323255 284,28.3079979 L284,28.3458341 C280.741304,31.8929772 277.722218,35.6387603 274.453937,39.1859035 C273.754276,40.0182997 272.862927,40.8979912 272.537057,41.9384865 C273.888457,44.8234963 276.054532,47.3490621 277.750971,50.05435 C279.84037,52.9299007 281.412212,56.3162399 284,58.6526249 L284,58.8323468 C280.300421,58.9174782 276.63918,59.1728725 272.939602,58.8134287 C270.160126,53.6866245 267.006858,48.7584603 264.026109,43.7451647 C264.016525,48.7679194 264.054862,53.7906741 264.064447,58.8134287 C261.045361,58.8134287 258.026274,58.8134287 255.007188,58.8134287 C254.997604,45.2113172 254.997604,31.6092058 255.007188,18.0070943 Z" id="Path"></path>
                    <path d="M129.793228,27.0891613 C133.111606,27.3972408 135.819482,28.8909593 138.497818,30.6554144 L138.950771,28.3214791 C141.944205,28.0787499 144.99672,28.2934719 148,28.2934719 C147.990153,38.1800215 148,48.0572354 147.990153,57.943785 C144.937639,57.9531208 141.885124,57.9624565 138.832609,57.9531208 L138.596286,55.1430627 L138.596286,55.1430627 C135.967184,57.2155972 133.34793,58.9333735 129.783381,58.9987237 C124.377476,59.0640739 118.272447,56.6181098 115.485796,52.0435968 C113.201334,48.3373076 112.56129,43.6601014 113.280108,39.4683538 C114.510961,32.3078405 121.984698,26.1835945 129.793228,27.0891613 Z M137.010947,38.2080288 C134.716638,35.5099996 130.462811,34.8098191 127.164126,36.0981513 C122.72321,37.8345991 121.177259,43.2306574 123.737432,47.0116324 C126.396074,50.9513151 132.688193,51.5581382 136.272436,48.430665 C139.216635,45.8446648 139.521887,41.1581229 137.010947,38.2080288 Z" id="Combined-Shape"></path>
                    <path d="M211.454547,30.8844034 L211.886646,28.3983547 C213.567029,28.2737408 215.256506,28.2760484 216.946657,28.2963046 L218.974622,28.322253 C219.650358,28.3291247 220.325664,28.3318939 221,28.3235863 L221,57.9785956 L221,57.9785956 C217.926207,57.9879416 214.862234,57.9972877 211.788441,57.9879416 C211.719698,57.0252987 211.650955,56.0720019 211.592033,55.109359 C206.21044,60.6515652 196.723909,59.9412656 191.19501,55.0719748 C184.409096,48.9503135 184.202867,37.4172907 190.97896,31.2208611 C196.478399,26.2394177 206.043493,25.108546 211.454547,30.8844034 Z M209.92256,38.1743206 C207.565658,35.501351 203.382157,34.8377816 200.082495,36.1742664 C195.751687,37.9313233 194.219701,43.2585705 196.704268,46.9969896 C199.316501,50.9877519 205.53283,51.6139371 209.166388,48.5484335 C212.191079,45.9689243 212.515153,41.1370177 209.92256,38.1743206 Z" id="Combined-Shape"></path>
                    <path d="M231.871833,28 C233.960656,34.2309458 235.935022,40.4901286 238.023845,46.7116621 C240.036364,40.4807163 242.020268,34.2497704 244.013711,28.0094123 C247.342474,28.0094123 250.671237,28.0188246 254,28.0564738 C248.859016,41.7043159 243.651267,55.3521579 238.491207,69 L228.609836,69 C230.326677,65.1880165 231.919523,61.3289715 233.60775,57.5075758 C229.744858,47.6905418 225.862891,37.8829201 222,28.0658861 C225.290611,28.0470615 228.581222,28.0188246 231.871833,28 Z" id="Path"></path>
                </g>
            </g>
        </g>
    </g>
</svg>