<?xml version="1.0" encoding="UTF-8"?>
<svg width="349px" height="42px" viewBox="0 0 349 42" version="1.1" xmlns="http://www.w3.org/2000/svg" xmlns:xlink="http://www.w3.org/1999/xlink">
    <title>4FDE7EF5-99C4-4A41-B2A3-26C6676BC0C7</title>
    <defs>
        <filter x="-3.6%" y="-50.0%" width="107.3%" height="200.0%" filterUnits="objectBoundingBox" id="filter-1">
            <feOffset dx="0" dy="2" in="SourceAlpha" result="shadowOffsetOuter1"></feOffset>
            <feGaussianBlur stdDeviation="2" in="shadowOffsetOuter1" result="shadowBlurOuter1"></feGaussianBlur>
            <feColorMatrix values="0 0 0 0 0   0 0 0 0 0   0 0 0 0 0  0 0 0 0.5 0" type="matrix" in="shadowBlurOuter1" result="shadowMatrixOuter1"></feColorMatrix>
            <feMerge>
                <feMergeNode in="shadowMatrixOuter1"></feMergeNode>
                <feMergeNode in="SourceGraphic"></feMergeNode>
            </feMerge>
        </filter>
    </defs>
    <g id="home-+-interactions" stroke="none" stroke-width="1" fill="none" fill-rule="evenodd">
        <g id="1-home" transform="translate(-216.000000, -272.000000)" fill-rule="nonzero">
            <g id="masthead" transform="translate(0.000000, 251.000000)">
                <g id="reviews" filter="url(#filter-1)" transform="translate(225.000000, 30.000000)">
                    <g id="Group-5">
                        <path d="M10.2611474,0.0742467888 C14.6219377,-0.449388399 18.9879914,1.83918976 21.2565498,5.5976677 C23.1277157,8.61189259 23.4724734,12.5431436 22.3881972,15.9002565 C21.1407533,19.7623982 17.8747661,22.7739651 13.9587396,23.6963073 C9.72953628,24.764842 5.13188957,22.9307898 2.4843609,19.4965936 C1.03164139,17.6625414 0.25527861,15.4590207 0,13.135888 L0,10.7064333 C0.236856442,9.24184964 0.536874602,7.82511078 1.22375828,6.50140356 C2.93438814,3.00341418 6.41091436,0.494218157 10.2611474,0.0742467888 Z" id="Path" fill="#3FB79A"></path>
                        <path d="M11.0344062,2.82352941 C11.1630974,2.92102697 11.255755,3.06332071 11.3123791,3.24514049 C11.9609823,5.23725285 12.5684045,7.2478107 13.2324507,9.23465292 C15.3275422,9.23201785 17.42006,9.22674771 19.5151515,9.23465292 C17.8087072,10.6786709 16.0790984,12.091068 14.3572111,13.5166405 C15.0392741,15.8381365 15.73678,18.1517273 16.418843,20.4705882 C14.6557745,19.0713665 12.9210182,17.6326186 11.1708188,16.2123163 C9.41289802,17.6273485 7.67299398,19.0713665 5.90220407,20.4705882 C6.59456233,18.1701728 7.24059179,15.8539469 7.97927886,13.5693418 C6.28312981,12.0857979 4.50719225,10.6997514 2.78787879,9.24255813 C4.89069181,9.20830222 6.99350483,9.26100361 9.09631785,9.21357236 C9.74492113,7.08707147 10.3343265,4.93421989 11.0344062,2.82352941 Z" id="Path" fill="#FFFFFF"></path>
                    </g>
                    <path d="M74.1121585,2 C74.7775653,2.03762431 75.0945504,2.51061564 75.325085,3.09110499 C77.4260937,8.38807035 79.5428207,13.6742859 81.63859,18.9685638 C81.9581948,18.3235756 82.2280251,17.651713 82.4847568,16.9771628 C84.2975973,12.4004343 86.1340151,7.8344555 87.9389964,3.25503948 C88.1354748,2.80892267 88.2795589,2.3869929 88.7301493,2.14780979 C89.1021484,1.92475138 89.5894147,2.22305841 89.8068508,2.54286504 C90.1028782,3.04273088 90.0242868,3.56678377 89.8016113,4.0773994 C87.7084618,9.11099459 85.6415093,14.1607145 83.5588386,19.1996846 C83.2418535,19.941421 82.9851218,20.7261566 82.5974044,21.4329561 C82.1887294,22.1316933 81.1591828,22.1720051 80.611663,21.6237651 C80.1794106,21.1615236 79.9331577,20.4735362 79.6869048,19.8930469 C77.5204033,14.539645 75.2726908,9.14593145 73.1114287,3.79790453 C72.7734859,3.01585637 73.2319355,2.02687451 74.1121585,2 Z" id="Path" fill="#FFFFFF"></path>
                    <path d="M120.220758,2.78501263 C121.984568,7.95947241 123.603407,13.201133 125.391378,18.3648406 C127.02364,13.2307013 128.685433,8.01592107 130.333803,2.88715781 C130.567367,1.95709906 131.770086,1.77162492 132.358023,2.47320103 C132.704342,3.06187983 132.857366,3.77689609 133.072137,4.42202354 C134.54869,9.0830694 136.030612,13.7441152 137.50985,18.4024731 C138.033355,17.1901711 138.398466,15.8945401 138.838748,14.6419176 C140.124691,10.8329776 141.429427,7.0321017 142.701947,3.22047366 C142.86571,2.817269 142.932826,2.41406434 143.343576,2.18826973 C144.044268,1.79850523 144.822814,2.30116704 145,3.02693542 C144.876506,3.73926365 144.573142,4.43815173 144.336894,5.12091162 C142.468383,10.4028926 140.602557,15.7359463 138.736731,21.0179273 C138.503167,21.8270246 137.678982,22.2597976 136.91386,21.8324007 C136.45747,21.5770377 136.355454,21.1012563 136.175583,20.644291 C134.881586,16.668693 133.563427,12.6984712 132.258691,8.7282493 C131.966065,7.84926314 131.737871,6.99178123 131.32712,6.15311554 C129.710966,11.037268 128.078704,15.9402366 126.457181,20.8270771 C126.261202,21.5447814 125.595411,22.0770115 124.843711,21.7974563 C124.239667,21.60123 124.097381,21.1039443 123.890663,20.5663381 C121.989937,15.0720026 120.062364,9.55885089 118.1509,4.06720344 C117.895859,3.37637946 117.917336,2.59953849 118.583127,2.15870139 C119.208648,1.78506508 119.992564,2.10225274 120.220758,2.78501263 Z" id="Path" fill="#FFFFFF"></path>
                    <path d="M154.331536,2.05196596 C155.961098,2.24212158 157.625106,2.87418815 158.894309,3.93745267 C159.660071,4.6070147 159.185776,5.89525207 158.173592,5.85775659 C157.545615,5.68099221 157.023625,5.14534258 156.438043,4.84805704 C154.909169,4.00976537 152.972243,3.74729705 151.287037,4.1731385 C150.126471,4.48649354 149.119588,5.29264623 148.844019,6.51660564 C148.594948,7.76734753 149.018899,8.92435073 150.126471,9.57248678 C152.760267,11.1017665 155.807416,10.6919945 158.36437,12.7676368 C160.113169,14.1522911 160.36489,16.6644879 159.567332,18.6437133 C158.79892,20.4140353 157.140212,21.4665868 155.311923,21.8361851 C152.156137,22.4146867 148.740681,21.4371261 146.348007,19.2811363 C145.725329,18.7454867 145.984999,17.668831 146.75606,17.4251104 C147.490026,17.2429895 147.903378,17.8696996 148.457164,18.2366196 C149.940993,19.3989793 151.803728,19.9587331 153.671762,19.9373071 C154.877373,19.8944552 156.085633,19.5918131 156.957383,18.6946 C157.823833,17.7920304 158.009311,16.3672024 157.508519,15.2343034 C157.15611,14.5031416 156.472489,14.0853349 155.762371,13.7639451 C154.275892,13.1104526 152.609235,12.9283317 151.030017,12.3980386 C149.742266,11.9695189 148.441266,11.377626 147.566867,10.287579 C146.681869,9.20288854 146.493741,7.59593965 146.745462,6.25145907 C147.058125,4.64718843 148.192195,3.35895106 149.636278,2.67599778 C151.08831,1.96090553 152.754968,1.93680129 154.331536,2.05196596 Z" id="Path" fill="#FFFFFF"></path>
                    <path d="M50.5862525,4.0630094 C52.5458553,6.24011682 52.4498747,9.86862918 50.4129542,11.9611623 C49.4851423,12.984239 48.2880516,13.4480339 46.9789836,13.7181261 C48.59199,15.8188438 50.1410094,17.9741256 51.7140239,20.1103099 C52.3432297,20.8660227 51.8153367,21.8836431 50.9061876,21.9382071 C50.2796479,21.9573046 50.0583595,21.4935098 49.7064308,21.0624534 C48.042768,18.7462076 46.3231165,16.473613 44.6567876,14.1573671 C42.8411556,14.1273569 41.0228575,14.1464543 39.2072255,14.1464543 C39.2205561,16.1325874 39.2072255,18.1214487 39.2232222,20.1075817 C39.1938948,20.6450381 39.2792109,21.2861662 38.8526307,21.6926687 C38.2740813,22.2601353 37.2449565,22.0145969 37.0743244,21.1797662 C36.9543487,20.3831304 37.0183358,19.5482998 37.0076713,18.7434793 C37.0130035,13.8327107 37.0103374,8.92194212 37.0076713,4.01117351 C37.0263342,3.20908131 37.1303131,2.17236349 38.0927847,2.04413786 C40.4922983,1.95956351 42.9051426,2.04686607 45.3073224,2.00321479 C47.2482623,1.94592249 49.2025329,2.65525573 50.5862525,4.0630094 Z M45.0433759,4.20487605 C43.1157666,4.21033246 41.1881573,4.19941964 39.260548,4.21851708 C39.2845431,6.86214751 39.2712125,9.50304974 39.2658802,12.1466802 C41.1934895,12.1466802 43.1184327,12.157593 45.0433759,12.1466802 C46.3444455,12.1412238 47.6161878,11.8302084 48.6213174,10.9462701 C50.15434,9.60126511 50.2449883,6.80758342 48.7412931,5.40801436 C47.7361635,4.47769653 46.35511,4.21851708 45.0433759,4.20487605 Z" id="Combined-Shape" fill="#FFFFFF"></path>
                    <path d="M58.7298842,3 C62.0743271,3.02342145 65.4262912,2.99219285 68.768227,3.01301192 C69.5178435,2.94534995 70.0919645,3.63237913 69.788608,4.3818655 C69.5228577,4.94918504 69.0490198,4.95438981 68.5099979,4.96740173 C65.3184868,4.95959458 62.1319899,4.96479934 58.9404788,4.96219696 C58.9379718,7.09094645 58.9404788,9.22229832 58.9404788,11.3510478 C61.878775,11.3692645 64.8296065,11.3198192 67.7653956,11.3692645 C68.4673776,11.3848788 68.9136376,12.1395699 68.5877173,12.7875633 C68.2943891,13.3340638 67.780438,13.2950281 67.2564586,13.3106424 C64.4836297,13.3002328 61.7108007,13.3054376 58.9379718,13.3054376 C58.9379718,15.5564991 58.9404788,17.8049582 58.9379718,20.0560197 C62.2147235,20.0612245 65.5015036,20.0560197 68.7657199,20.0560197 C69.2696427,20.0612245 69.6858178,20.0872483 69.9264973,20.6155321 C70.1847264,21.3337899 69.7359593,22.0052048 68.9963712,21.9869881 C65.4914753,22.0130119 61.976551,21.9791809 58.4716551,22 C58.0730296,21.9739762 57.6317838,22.0416381 57.3158919,21.7319545 C56.9448443,21.4118614 57.0300849,20.9798658 57,20.5296535 C57.0150425,15.1505273 57.0100283,9.76619641 57.0025071,4.38446788 C57.0275779,4.01232708 56.9774363,3.66621011 57.2356654,3.36693604 C57.6192484,2.91932612 58.2084119,3.02862622 58.7298842,3 Z" id="Path" fill="#FFFFFF"></path>
                    <path d="M95.4343491,2.1281336 C95.9628829,2.42893867 95.9875807,2.92486055 95.9900505,3.51292092 C95.9826412,8.56969812 95.9875807,13.6318952 95.9875807,18.6913824 C95.9554735,19.5531483 96.0863721,20.5124726 95.8838498,21.3444289 C95.4862146,22.3118831 94.1648802,22.1872251 94.029042,21.1113727 C93.9747068,15.17386 94.0216327,9.17943813 94.006814,3.23650545 C93.9179018,2.36389974 94.715642,1.71351039 95.4343491,2.1281336 Z" id="Path" fill="#FFFFFF"></path>
                    <path d="M102.733513,3 C106.23284,3.01301013 109.732167,3.01040811 113.231494,3 C113.640646,3.02341824 114.117093,2.96357162 114.45895,3.22377431 C114.962315,3.59846617 114.959623,4.40249247 114.442799,4.7641742 C114.095559,4.98534648 113.632571,4.95152013 113.231494,4.96973432 C109.882907,4.95412216 106.53432,4.96973432 103.185734,4.95932621 C103.185734,7.0903862 103.183042,9.22144618 103.185734,11.3525062 C106.087483,11.3447001 108.986541,11.3603122 111.885599,11.3420981 C112.450875,11.3759244 113.053836,11.2562312 113.446837,11.7428102 C113.934051,12.3464804 113.495289,13.2571898 112.706595,13.2832101 C109.538358,13.3352506 106.356662,13.2884141 103.185734,13.3014243 C103.183042,15.5521775 103.185734,17.8029307 103.185734,20.0536839 C106.71467,20.058888 110.254374,20.0484799 113.780619,20.0562859 C114.456258,20.0094495 114.975774,20.3659271 115,21.0476582 C114.935397,21.711175 114.426649,22.0182142 113.775236,21.9895919 C110.09825,22.002602 106.410498,21.9791838 102.730821,22 C102.248991,21.9661737 101.643338,22.0676527 101.293405,21.6669406 C100.965007,21.3312791 101.034993,20.9513832 101.002692,20.5272528 C101.008075,15.2347302 101.013459,9.94220761 101,4.65228704 C101.032301,4.16050397 100.951548,3.68953711 101.3607,3.32265133 C101.751009,2.94795946 102.230148,3.02602027 102.733513,3 Z" id="Path" fill="#FFFFFF"></path>
                    <path d="M174.748346,11.4192457 C175.365393,12.0631511 174.751006,13.2253868 173.862671,12.974237 C173.306797,12.7017128 172.804117,12.3062854 172.234945,12.0952127 C171.022129,11.6703955 169.628454,11.8734528 168.580538,12.6188868 C167.069838,13.6769221 166.450131,15.7155104 167.120372,17.4441692 C167.705502,19.0365658 169.261418,20.0839139 170.939678,20.0999448 C171.708327,20.0946012 172.381227,19.8915439 173.02753,19.4800857 C173.461059,19.2636694 173.838734,18.8789292 174.352053,19.047253 C175.016974,19.2609976 175.237728,20.1533809 174.692493,20.6262906 C173.149876,22.0129582 170.769459,22.3656366 168.854486,21.6121872 C166.766634,20.8213325 165.239975,18.8254931 165.02986,16.5891911 C164.782509,14.1818935 166.091074,11.7558933 168.242758,10.6684681 C170.306673,9.56768386 173.011572,9.8321927 174.748346,11.4192457 Z" id="Path" fill="#FFFFFF"></path>
                    <path d="M184.711671,10.5182059 C186.961846,11.6566019 188.284692,14.291481 187.947968,16.7793841 C187.62995,19.4009017 185.513396,21.8433759 182.779514,21.9956965 C180.091063,22.1052604 177.85425,20.1090589 177.207525,17.5757269 C176.432524,14.6843078 177.872957,11.3118763 180.780546,10.2964057 C182.065979,9.83944389 183.490377,9.90892346 184.711671,10.5182059 Z M184.417705,12.455617 C183.447618,11.758149 182.130117,11.6272067 181.045116,12.134942 C178.82701,13.1958416 178.129509,16.2128584 179.44701,18.2357828 C180.208649,19.4650367 181.584944,20.2453458 183.049428,19.9567383 C184.513912,19.7135598 185.606931,18.4228432 185.986414,17.0412686 C186.448742,15.3737589 185.810035,13.4871214 184.417705,12.455617 Z" id="Combined-Shape" fill="#FFFFFF"></path>
                    <path d="M195.727134,10.6760487 C195.85301,12.831959 195.657774,15.018057 195.809338,17.1714517 C196.027694,18.3865096 197.134884,19.3323933 198.396208,19.3676123 C199.832216,19.4481131 201.150056,18.3361967 201.25538,16.9249182 C201.327309,14.9098842 201.229691,12.8847876 201.286207,10.8697536 C201.275931,10.4244839 201.563647,10.1251218 201.984944,10.009402 C202.511566,9.93393257 203.027913,10.3213423 202.984242,10.8647223 C203.022775,12.2910947 202.971397,13.7224984 202.994517,15.1488707 C202.979104,16.147583 203.097273,17.1890612 202.709371,18.1273979 C202.175042,19.5235825 200.916287,20.5877016 199.426332,20.8971263 C197.512511,21.334849 195.467676,20.3361368 194.560859,18.6531683 C193.856984,17.4355947 194.031668,15.9890971 194.011117,14.6457412 C194.04965,13.3149634 193.931482,11.9615448 194.067633,10.638314 C194.270575,9.7729311 195.549881,9.81318147 195.727134,10.6760487 Z" id="Path" fill="#FFFFFF"></path>
                    <path d="M207.636229,10.7144051 C207.723987,12.4315243 207.636229,14.1649711 207.668825,15.8875328 C209.160725,14.2003476 210.657641,12.5186048 212.139512,10.8232558 C212.478011,10.4722124 212.746302,10.1075627 213.245274,10.0585799 C213.601324,10.1647093 213.781857,10.4395572 214,10.7361753 L214,11.3402964 C212.916805,12.7907315 211.612959,14.0506779 210.429468,15.4058686 C211.597914,17.2046258 212.906775,18.9081386 214,20.7585999 L214,21.1858387 C213.794394,21.4253102 213.598817,21.9260232 213.250289,21.8879255 C212.806479,22.0022187 212.533173,21.5613735 212.289956,21.2375428 C211.292012,19.7435675 210.291561,18.2523134 209.288603,16.7610594 C208.782109,17.3624593 208.268092,17.9611379 207.754076,18.5570953 C207.754076,19.4605558 207.814254,20.3776226 207.736524,21.2783618 C207.59611,22.1165119 206.580615,22.2498539 206.189461,21.5450459 C205.938721,20.8973845 206.013943,20.0673982 206.001406,19.3734752 C206.039017,16.4834902 205.956273,13.5744563 206.03651,10.6899137 C206.196983,9.75924059 207.485785,9.77284692 207.636229,10.7144051 Z" id="Path" fill="#FFFFFF"></path>
                    <path d="M162.57435,19.3285417 C163.542445,18.5459334 165.025142,19.2515638 164.999412,20.4960392 C165.031574,21.6539145 163.738637,22.3755819 162.751244,21.7950406 C161.837826,21.2433659 161.731689,20.0020979 162.57435,19.3285417 Z" id="Path" fill="#FFFFFF"></path>
                    <path d="M190.612307,19.3011707 C191.573048,18.5558827 193.012553,19.2851085 192.9997,20.4897766 C193.022192,21.6205584 191.775478,22.3594215 190.789031,21.8197302 C189.82829,21.2928887 189.715829,19.9532977 190.612307,19.3011707 Z" id="Path" fill="#FFFFFF"></path>
                    <g id="Group-4" transform="translate(225.000000, 5.000000)" fill="#FFE28C">
                        <path d="M8.83768773,0 C9.68766637,1.71913953 10.5237109,3.44340571 11.3649808,5.16767189 C11.4973545,5.40862485 11.5548326,5.59489345 11.870091,5.61710897 C13.7999606,5.90591074 15.7367971,6.17249698 17.6666667,6.47326096 C16.2001052,7.93606755 14.7161261,9.38178528 13.246081,10.8411741 C13.5421802,12.5022115 13.8069276,14.1683756 14.1030267,15.8294129 C14.1692136,16.2173301 14.2110158,16.6069562 14.2319169,17 L14.1657301,17 C13.5386966,16.5249296 12.833284,16.2241657 12.1470308,15.8482107 C11.0497223,15.2569361 9.94196326,14.6844592 8.84988005,14.086349 C7.00884025,15.0228187 5.2043774,16.0293526 3.37030464,16.9794934 C3.7203983,14.9322477 4.06004141,12.8832931 4.41710211,10.8360474 C2.94357356,9.40741858 1.51533077,7.93435867 0.0243846331,6.52452754 L0,6.49889425 L0,6.44762766 C2.03785862,6.19129473 4.06875021,5.85977081 6.10138355,5.56584238 C7.01754905,3.71340973 7.88146176,1.83192602 8.83768773,0 Z" id="Path"></path>
                        <path d="M30.722591,0 C31.6783458,1.83192602 32.5505374,3.70999196 33.4627697,5.56413349 C35.4978833,5.87856856 37.5382197,6.15882589 39.5733333,6.47155207 C38.1074944,7.93435867 36.6207647,9.37665862 35.151444,10.8360474 C35.5118105,12.8815842 35.8425818,14.9339566 36.1977257,16.9812023 C34.3628157,16.0293526 32.5540192,15.0245275 30.7121456,14.086349 C28.9381671,15.077503 27.0841072,15.9473261 25.3501695,17 L25.2979425,17 C25.5834503,14.9407921 25.9734122,12.8952553 26.3128879,10.8445919 C24.8557535,9.37665862 23.3672829,7.93777644 21.9066667,6.47326096 C23.8303626,6.17591476 25.764504,5.90591074 27.6916818,5.61881785 C27.9719669,5.57096904 28.0102667,5.53166466 28.1425752,5.28558504 C29.011285,3.52885002 29.8521403,1.75673502 30.722591,0 Z" id="Path"></path>
                        <path d="M53.3515945,0 C54.2957874,1.84265135 55.1634711,3.72469024 56.0937533,5.5741916 C58.1247244,5.86874182 60.1556955,6.16500453 62.1866667,6.47325476 C60.7051706,7.92374333 59.2271522,9.37594439 57.7630446,10.843558 C58.117769,12.893422 58.4533661,14.9484235 58.8063517,17 C56.9788255,16.0478493 55.1704265,15.0614486 53.3498556,14.0990229 C51.5275459,15.0580236 49.7208858,16.0478493 47.8916207,16.996575 C48.2411286,14.943286 48.5819423,12.8882845 48.9366667,10.8349955 C47.4603871,9.3862194 46.0049738,7.91518082 44.52,6.47325476 C46.5509711,6.16671703 48.5819423,5.86874182 50.6129134,5.5741916 C51.5449344,3.72640274 52.3969685,1.83580135 53.3515945,0 Z" id="Path"></path>
                        <path d="M75.277409,0 C76.1461188,1.75502614 76.988715,3.52885002 77.8556839,5.28387616 C77.9879924,5.52824688 78.0280331,5.57096904 78.3065773,5.61881785 C80.2337551,5.90591074 82.1678965,6.17420587 84.0933333,6.47326096 C82.6309762,7.93948532 81.1425056,9.37836751 79.6853712,10.8445919 C79.9778426,12.4970848 80.2424596,14.1529956 80.534931,15.8037797 C80.606308,16.2002413 80.6480896,16.5984117 80.6689804,17 L80.6045671,17 C80.0126606,16.548854 79.3476363,16.2600523 78.6982801,15.9080217 C77.5632125,15.2979493 76.4194403,14.7032569 75.2878544,14.086349 C73.4442399,15.0245275 71.6371843,16.0293526 69.8022743,16.9794934 C70.1556773,14.9322477 70.4864486,12.8815842 70.848556,10.8360474 C69.3740126,9.38178528 67.8959874,7.93094089 66.4266667,6.47326096 C68.4617803,6.15882589 70.5021167,5.87856856 72.5354894,5.56413349 C73.4494626,3.70999196 74.3199133,1.83192602 75.277409,0 Z" id="Path"></path>
                        <path d="M97.1614409,0 C98.1177611,1.8334506 98.981759,3.7147452 99.8997568,5.56699166 C101.930849,5.8796864 103.968908,6.15649814 106,6.47602774 L106,6.49140617 C104.5211,7.93014373 103.064846,9.38938587 101.596398,10.8383757 C101.951752,12.8837069 102.287945,14.9341642 102.641557,16.9812041 C100.803819,16.0294502 98.9956945,15.0247261 97.1509893,14.0866419 C95.3794452,15.079405 93.5208046,15.9457232 91.787583,17 L91.737067,17 C92.0175179,14.9409991 92.4129363,12.8939592 92.750871,10.8417931 C91.2824229,9.38255101 89.8000394,7.93697859 88.3333333,6.47431903 C90.2616512,6.175294 92.1986788,5.90702583 94.1287386,5.61825309 C94.4440281,5.5960398 94.5015119,5.41149864 94.6356406,5.16886119 C95.4752514,3.44476832 96.3131204,1.71896673 97.1614409,0 Z" id="Path"></path>
                    </g>
                </g>
            </g>
        </g>
    </g>
</svg>