<?xml version="1.0" encoding="UTF-8"?>
<svg width="22px" height="22px" viewBox="0 0 22 22" version="1.1" xmlns="http://www.w3.org/2000/svg" xmlns:xlink="http://www.w3.org/1999/xlink">
    <title>69321081-73E3-4072-BA78-064022424BD0</title>
    <g id="home-+-interactions" stroke="none" stroke-width="1" fill="none" fill-rule="evenodd">
        <g id="1-home" transform="translate(-1393.000000, -168.000000)" fill="#26705E" fill-rule="nonzero">
            <g id="header-lower" transform="translate(0.000000, 81.000000)">
                <g id="search" transform="translate(982.000000, 87.000000)">
                    <g id="noun_Search_875357" transform="translate(411.000000, 0.000000)">
                        <path d="M21.7019979,20.0965058 L17.5962145,16.0332779 C20.7122109,12.1530782 20.4189406,6.44259567 16.8630389,2.89184692 C14.9934411,1.0249584 12.5373029,0 9.89787068,0 C7.2584385,0 4.76564144,1.0249584 2.89604364,2.89184692 C1.02644585,4.75873544 0,7.21131448 0,9.88352745 C0,12.5557404 1.02644585,15.0083195 2.89604364,16.875208 C4.76564144,18.7054908 7.22177972,19.7670549 9.89787068,19.7670549 C12.1340563,19.7670549 14.3335831,18.9983361 16.0565458,17.6073211 L20.1256704,21.6705491 C20.3456231,21.890183 20.6022345,22 20.8955048,22 C21.188775,22 21.4820453,21.890183 21.6653392,21.6705491 C22.1052445,21.2312812 22.1052445,20.5357737 21.7019979,20.0965058 Z M17.5962145,9.88352745 C17.5962145,11.9334443 16.7897214,13.8735441 15.3233702,15.3011647 C13.857019,16.7287854 11.9507624,17.5707155 9.89787068,17.5707155 C7.84497898,17.5707155 5.90206363,16.765391 4.4723712,15.3011647 C3.04267877,13.8369384 2.19952682,11.9334443 2.19952682,9.88352745 C2.19952682,7.83361065 3.00601998,5.89351082 4.4723712,4.46589018 C5.93872241,3.03826955 7.8083202,2.19633943 9.89787068,2.19633943 C11.9507624,2.19633943 13.8936777,3.00166389 15.3233702,4.46589018 C16.7530626,5.93011647 17.5962145,7.79700499 17.5962145,9.88352745 Z" id="Shape"></path>
                    </g>
                </g>
            </g>
        </g>
    </g>
</svg>