<?xml version="1.0" encoding="UTF-8"?>
<svg width="30px" height="30px" viewBox="0 0 30 30" version="1.1" xmlns="http://www.w3.org/2000/svg" xmlns:xlink="http://www.w3.org/1999/xlink">
    <title>25DED701-6C00-4A49-A7C0-EAF82C8CD9A5</title>
    <g id="home-+-interactions" stroke="none" stroke-width="1" fill="none" fill-rule="evenodd">
        <g id="1-home" transform="translate(-226.000000, -3389.000000)" fill="#FFFFFF" fill-rule="nonzero">
            <g id="footer" transform="translate(0.000000, 2988.000000)">
                <g id="main" transform="translate(0.000000, 185.000000)">
                    <g id="column" transform="translate(225.000000, 50.000000)">
                        <g id="phone" transform="translate(1.000000, 166.000000)">
                            <g id="noun_Phone-Circle_1784018" transform="translate(-0.000000, -0.000000)">
                                <path d="M15,0 C6.71572875,0 0,6.71572875 0,15 C0,23.2842712 6.71572875,30 15,30 C23.2842712,30 30,23.2842712 30,15 C30,11.0217527 28.4196474,7.20644396 25.6066017,4.39339828 C22.793556,1.58035261 18.9782473,0 15,0 Z M15,28.6363636 C12.6016754,28.6303311 10.2482523,27.9854932 8.18181818,26.7681818 C8.19572568,26.7099092 8.19572568,26.6491817 8.18181818,26.5909091 L8.18181818,12.9545455 C8.18181818,12.5779877 8.48707858,12.2727273 8.86363636,12.2727273 L21.1363636,12.2727273 C21.5129214,12.2727273 21.8181818,12.5779877 21.8181818,12.9545455 L21.8181818,26.5909091 C21.8042743,26.6491817 21.8042743,26.7099092 21.8181818,26.7681818 C19.7517477,27.9854932 17.3983246,28.6303311 15,28.6363636 Z M23.1818182,25.9090909 L23.1818182,12.9545455 C23.1818182,11.8248721 22.266037,10.9090909 21.1363636,10.9090909 L8.86363636,10.9090909 C7.73396301,10.9090909 6.81818182,11.8248721 6.81818182,12.9545455 L6.81818182,25.9090909 C2.12257737,22.3873876 0.20730894,16.2561051 2.06340957,10.6878032 C3.9195102,5.11950129 9.13049444,1.36363636 15,1.36363636 C20.8695056,1.36363636 26.0804898,5.11950129 27.9365904,10.6878032 C29.7926911,16.2561051 27.8774226,22.3873876 23.1818182,25.9090909 Z M19.0909091,15.6818182 C19.0909091,16.058376 18.7856487,16.3636364 18.4090909,16.3636364 L11.5909091,16.3636364 C11.2143513,16.3636364 10.9090909,16.058376 10.9090909,15.6818182 C10.9090909,15.3052604 11.2143513,15 11.5909091,15 L18.4090909,15 C18.7856487,15 19.0909091,15.3052604 19.0909091,15.6818182 Z" id="Shape"></path>
                            </g>
                        </g>
                    </g>
                </g>
            </g>
        </g>
    </g>
</svg>