<?xml version="1.0" encoding="UTF-8"?>
<svg width="108px" height="114px" viewBox="0 0 108 114" version="1.1" xmlns="http://www.w3.org/2000/svg" xmlns:xlink="http://www.w3.org/1999/xlink">
    <title>14C6B2FD-98E4-44CC-8487-A67EB733E7BD</title>
    <defs>
        <circle id="path-1" cx="50" cy="50" r="49"></circle>
        <filter x="-12.8%" y="-7.7%" width="125.5%" height="130.6%" filterUnits="objectBoundingBox" id="filter-2">
            <feMorphology radius="2.5" operator="erode" in="SourceAlpha" result="shadowSpreadOuter1"></feMorphology>
            <feOffset dx="0" dy="10" in="shadowSpreadOuter1" result="shadowOffsetOuter1"></feOffset>
            <feGaussianBlur stdDeviation="5" in="shadowOffsetOuter1" result="shadowBlurOuter1"></feGaussianBlur>
            <feColorMatrix values="0 0 0 0 0   0 0 0 0 0   0 0 0 0 0  0 0 0 0.5 0" type="matrix" in="shadowBlurOuter1"></feColorMatrix>
        </filter>
    </defs>
    <g id="about" stroke="none" stroke-width="1" fill="none" fill-rule="evenodd">
        <g id="6-about" transform="translate(-1078.000000, -1358.000000)">
            <g id="video" transform="translate(829.000000, 1205.000000)">
                <g id="noun_Circle-Play_2672426" transform="translate(253.000000, 153.000000)">
                    <g id="Oval">
                        <use fill="black" fill-opacity="1" filter="url(#filter-2)" xlink:href="#path-1"></use>
                        <use fill="#1F2F4B" fill-rule="evenodd" xlink:href="#path-1"></use>
                    </g>
                    <path d="M50,0 C22.3857625,0 0,22.3857625 0,50 C0,77.6142375 22.3857625,100 50,100 C77.6142375,100 100,77.6142375 100,50 C100,36.7391755 94.732158,24.0214799 85.3553391,14.6446609 C75.9785201,5.26784202 63.2608245,0 50,0 Z M70.6818182,53.7727273 L43.4090909,71.9545455 C42.016422,72.8717232 40.2333448,72.9526859 38.763287,72.1654937 C37.2932291,71.3783014 36.3722341,69.8493516 36.3636364,68.1818182 L36.3636364,31.8181818 C36.3681069,30.1427557 37.2938765,28.6056289 38.7727273,27.8181818 C40.2194386,27.0753457 41.9527844,27.162013 43.3181818,28.0454545 L70.5909091,46.2272727 C71.8474067,47.0716442 72.6010755,48.4861475 72.6010755,50 C72.6010755,51.5138525 71.8474067,52.9283558 70.5909091,53.7727273 L70.6818182,53.7727273 Z" id="Shape" fill="#FFE28C" fill-rule="nonzero"></path>
                </g>
            </g>
        </g>
    </g>
</svg>