<?xml version="1.0" encoding="UTF-8"?>
<svg width="32px" height="21px" viewBox="0 0 32 21" version="1.1" xmlns="http://www.w3.org/2000/svg" xmlns:xlink="http://www.w3.org/1999/xlink">
    <title>1C110BDB-7AB6-4395-8B6C-7F6C452ABCFC</title>
    <g id="home-+-interactions" stroke="none" stroke-width="1" fill="none" fill-rule="evenodd">
        <g id="1-home" transform="translate(-627.000000, -3724.000000)" fill-rule="nonzero">
            <g id="footer" transform="translate(0.000000, 2988.000000)">
                <g id="main" transform="translate(0.000000, 185.000000)">
                    <g id="payments" transform="translate(0.000000, 537.000000)">
                        <g id="payment-types" transform="translate(627.000000, 14.000000)">
                            <g id="apple-pay-payment-mark" transform="translate(0.000000, 0.320000)">
                                <path d="M28.4608121,-0.0267430176 L2.20963173,-0.0267430176 C2.02077432,-0.0267430176 1.81303116,-0.00788211932 1.62417375,0.0298396772 C1.43531634,0.0675614737 1.24645892,0.124144168 1.05760151,0.21844866 C0.887629839,0.293892253 0.717658168,0.425918541 0.585457979,0.557944828 C0.45325779,0.689971116 0.321057602,0.8597192 0.245514636,1.02946728 C0.15108593,1.19921537 0.0944287063,1.38782435 0.0566572238,1.59529423 C0.0188857413,1.78390322 0.0188857413,1.9913731 0,2.17998208 L0,17.7402231 C0,17.9288321 0.0188857413,18.136302 0.0566572238,18.324911 C0.0944287063,18.51352 0.15108593,18.702129 0.245514636,18.8907379 C0.339943343,19.060486 0.45325779,19.2302341 0.585457979,19.3622604 C0.717658168,19.4942867 0.887629839,19.626313 1.05760151,19.7017566 C1.22757318,19.796061 1.41643059,19.8526437 1.62417375,19.8903655 C1.81303116,19.9280873 2.02077432,19.9280873 2.20963173,19.9469482 L29.0462701,19.9469482 C29.2351275,19.9469482 29.4428706,19.9280873 29.631728,19.8903655 C29.8205855,19.8526437 30.0094429,19.796061 30.1983003,19.7017566 C30.368272,19.6074521 30.5382436,19.4942867 30.6704438,19.3622604 C30.802644,19.2302341 30.9348442,19.060486 31.0103872,18.8907379 C31.1048159,18.7209898 31.1614731,18.5323809 31.1992446,18.324911 C31.2370161,18.136302 31.2370161,17.9288321 31.2559018,17.7402231 L31.2559018,17.4761706 L31.2559018,2.76466992 L31.2559018,2.44403465 L31.2559018,2.17998208 C31.2559018,1.9913731 31.2370161,1.78390322 31.1992446,1.59529423 C31.1614731,1.40668525 31.1048159,1.21807627 31.0103872,1.02946728 C30.9159585,0.8597192 30.802644,0.689971116 30.6704438,0.557944828 C30.5382436,0.425918541 30.368272,0.293892253 30.1983003,0.21844866 C30.0283286,0.124144168 29.8394712,0.0675614737 29.631728,0.0298396772 C29.4428706,-0.00788211932 29.2351275,-0.00788211932 29.0462701,-0.0267430176 L28.4608121,-0.0267430176 Z" id="XMLID_4_" fill="#000000"></path>
                                <path d="M28.4543176,0.641832422 L29.0394793,0.641832422 C29.1904888,0.641832422 29.3603744,0.660676244 29.5302601,0.679520067 C29.6812695,0.698363889 29.7945266,0.736051534 29.9077837,0.792583001 C30.0210408,0.849114469 30.1154218,0.924489758 30.2098027,1.01870887 C30.3041836,1.11292798 30.3796883,1.20714709 30.4363169,1.32021003 C30.4929454,1.43327296 30.5306978,1.5463359 30.549574,1.69708648 C30.5873264,1.86668088 30.5873264,2.03627528 30.5873264,2.18702586 L30.5873264,17.7331794 C30.5873264,17.8839299 30.5684502,18.0535243 30.549574,18.2231187 C30.5306978,18.3550255 30.4929454,18.4869323 30.4363169,18.5999952 C30.3796883,18.7130581 30.3041836,18.8072772 30.2098027,18.9014963 C30.1154218,18.9957155 30.0210408,19.0710907 29.9077837,19.1276222 C29.7945266,19.1841537 29.6812695,19.2218413 29.5302601,19.2406852 C29.3603744,19.2783728 29.1904888,19.2783728 29.0394793,19.2783728 L2.21642249,19.2783728 C2.08428921,19.2783728 1.89552737,19.259529 1.72564172,19.2406852 C1.59350843,19.2218413 1.46137515,19.1841537 1.34811805,19.1087784 C1.23486095,19.0522469 1.14048003,18.9768716 1.04609911,18.8826525 C0.951718193,18.7884334 0.876213458,18.6942143 0.819584908,18.5811514 C0.762956357,18.4680884 0.72520399,18.3550255 0.706327807,18.2042749 C0.668575439,18.0346805 0.668575439,17.8650861 0.668575439,17.7143355 L0.668575439,2.45083937 L0.668575439,2.18702586 C0.668575439,2.03627528 0.687451623,1.86668088 0.706327807,1.69708648 C0.72520399,1.56517972 0.762956357,1.43327296 0.819584908,1.32021003 C0.876213458,1.20714709 0.951718193,1.11292798 1.04609911,1.01870887 C1.14048003,0.924489758 1.23486095,0.849114469 1.34811805,0.792583001 C1.46137515,0.736051534 1.57463225,0.698363889 1.72564172,0.679520067 C1.89552737,0.641832422 2.06541302,0.641832422 2.21642249,0.641832422 L28.4543176,0.641832422" id="XMLID_3_" fill="#FFFFFF"></path>
                                <path d="M8.51591171,6.73398519 C8.78193172,6.39444496 8.97194601,5.94172466 8.91494172,5.48900436 C8.51591171,5.5078677 8.04087599,5.7530912 7.75585456,6.07376808 C7.50883599,6.35671827 7.28081884,6.82830191 7.33782313,7.26215887 C7.79385742,7.31874891 8.23089028,7.07352541 8.51591171,6.73398519 M8.91494172,7.37533895 C8.26889314,7.33761225 7.7178517,7.73374252 7.41382884,7.73374252 C7.10980598,7.73374252 6.63477026,7.39420229 6.12173168,7.39420229 C5.45668167,7.41306564 4.84863595,7.77146921 4.50661023,8.37509628 C3.82255879,9.56348707 4.31659594,11.3177782 5.00064738,12.2798089 C5.32367167,12.7513925 5.72270167,13.2795662 6.23574025,13.2607029 C6.7297774,13.2418395 6.91979169,12.940026 7.50883599,12.940026 C8.09788028,12.940026 8.26889314,13.2607029 8.80093315,13.2418395 C9.33297315,13.2229762 9.67499887,12.7702559 9.99802316,12.2798089 C10.3780517,11.7327718 10.5300632,11.2045982 10.5300632,11.1857348 C10.5110617,11.1668715 9.48498458,10.7896045 9.48498458,9.6200771 C9.46598316,8.63918312 10.2830446,8.16759947 10.3210475,8.14873613 C9.88401459,7.46965567 9.16196029,7.39420229 8.91494172,7.37533895" id="Shape" fill="#000000"></path>
                                <path d="M14.4619036,5.99043594 C15.8576174,5.99043594 16.8195282,6.95229175 16.8195282,8.32906576 C16.8195282,9.72469969 15.8387564,10.6865555 14.4241817,10.6865555 L12.8964409,10.6865555 L12.8964409,13.1194849 L11.7836421,13.1194849 L11.7836421,5.99043594 L14.4619036,5.99043594 Z M12.8964409,9.76241952 L14.1601277,9.76241952 C15.1220385,9.76241952 15.6690074,9.23434182 15.6690074,8.34792568 C15.6690074,7.44264962 15.1220385,6.93343183 14.1601277,6.93343183 L12.8775799,6.93343183 L12.8775799,9.76241952 L12.8964409,9.76241952 Z M17.1024432,11.6672712 C17.1024432,10.7619952 17.8003001,10.1961976 19.0451258,10.120758 L20.4785616,10.0453183 L20.4785616,9.64926002 C20.4785616,9.06460256 20.0824806,8.72512404 19.4412068,8.72512404 C18.8187939,8.72512404 18.4415739,9.02688272 18.347269,9.47952076 L17.3287751,9.47952076 C17.3853581,8.53652486 18.196381,7.8387079 19.4789288,7.8387079 C20.7426155,7.8387079 21.5536384,8.49880502 21.5536384,9.55496043 L21.5536384,13.1383448 L20.5351446,13.1383448 L20.5351446,12.2896485 L20.5162836,12.2896485 C20.2145076,12.874306 19.5543727,13.2326444 18.8753769,13.2326444 C17.819161,13.2326444 17.1024432,12.5914072 17.1024432,11.6672712 L17.1024432,11.6672712 Z M20.4785616,11.1957733 L20.4785616,10.7808551 L19.1960138,10.8562948 C18.5547399,10.8940146 18.196381,11.1769134 18.196381,11.6295514 C18.196381,12.0821894 18.5736009,12.3839481 19.1394308,12.3839481 C19.8938707,12.3839481 20.4785616,11.8747303 20.4785616,11.1957733 Z M22.4966882,15.0620565 L22.4966882,14.1945002 C22.5721322,14.2133602 22.7607422,14.2133602 22.8361862,14.2133602 C23.3265721,14.2133602 23.590626,14.0059011 23.760375,13.4778234 C23.760375,13.4589634 23.85468,13.1572048 23.85468,13.1572048 L21.9685803,7.9518674 L23.1191011,7.9518674 L24.4393709,12.1953489 L24.4582319,12.1953489 L25.7785016,7.9518674 L26.9101614,7.9518674 L24.9674788,13.4401035 C24.5148149,14.703718 24.005568,15.0997763 22.9304911,15.0997763 C22.8550472,15.0809164 22.5909932,15.0809164 22.4966882,15.0620565 L22.4966882,15.0620565 Z" id="Shape" fill="#000000"></path>
                            </g>
                        </g>
                    </g>
                </g>
            </g>
        </g>
    </g>
</svg>