<?xml version="1.0" encoding="UTF-8"?>
<svg width="51px" height="21px" viewBox="0 0 51 21" version="1.1" xmlns="http://www.w3.org/2000/svg" xmlns:xlink="http://www.w3.org/1999/xlink">
    <title>FB6E8D67-500B-4029-A9BA-ECC879B0A698</title>
    <g id="home-+-interactions" stroke="none" stroke-width="1" fill="none" fill-rule="evenodd">
        <g id="1-home" transform="translate(-678.000000, -3724.000000)" fill-rule="nonzero">
            <g id="footer" transform="translate(0.000000, 2988.000000)">
                <g id="main" transform="translate(0.000000, 185.000000)">
                    <g id="payments" transform="translate(0.000000, 537.000000)">
                        <g id="payment-types" transform="translate(627.000000, 14.000000)">
                            <g id="google-pay-primary-logo" transform="translate(51.377600, 0.089600)">
                                <path d="M23.8026079,9.75621261 L23.8026079,15.6330562 L21.9457887,15.6330562 L21.9457887,1.11653328 L26.8678333,1.11653328 C28.0551871,1.09114735 29.2025414,1.54386316 30.0551625,2.37313699 C30.9183097,3.15375444 31.4046195,4.27073551 31.3856724,5.43637295 C31.4109352,6.61047237 30.9246254,7.73591541 30.0551625,8.51864836 C29.1941204,9.3436912 28.1309756,9.75621261 26.8678333,9.75409712 L23.8026079,9.75621261 L23.8026079,9.75621261 Z M23.8026079,2.90412609 L23.8026079,7.97285079 L26.9141485,7.97285079 C27.6046663,7.99400574 28.2699213,7.72110695 28.7499154,7.22185026 C29.7246402,6.26987776 29.7477978,4.70229638 28.7983358,3.72282245 C28.7814939,3.70589849 28.7667573,3.68897453 28.7499154,3.67416607 C28.276237,3.16433191 27.6067716,2.88508664 26.9141485,2.90412609 L23.8026079,2.90412609 L23.8026079,2.90412609 Z M35.6635144,5.3771391 C37.0361291,5.3771391 38.118221,5.74523514 38.9118954,6.48142721 C39.7055699,7.21761927 40.1013545,8.22882562 40.1013545,9.51081526 L40.1013545,15.6330562 L38.3266395,15.6330562 L38.3266395,14.2537538 L38.2466405,14.2537538 C37.4782289,15.3897743 36.4550836,15.9567268 35.1793099,15.9567268 C34.0909022,15.9567268 33.1793345,15.6330562 32.4467119,14.9835994 C31.7351418,14.3806835 31.3309362,13.4879448 31.3477781,12.5507808 C31.3477781,11.5226505 31.7351418,10.7060696 32.5077638,10.0989227 C33.2803859,9.49177581 34.3119521,9.18714461 35.6045678,9.18714461 C36.7056068,9.18714461 37.6150693,9.39023207 38.3266395,9.79429151 L38.3266395,9.36696163 C38.33085,8.72808231 38.0487482,8.1230509 37.5603331,7.71687596 C37.0698129,7.27262213 36.4298208,7.02934027 35.7687763,7.03780225 C34.7329996,7.03780225 33.911957,7.47782509 33.307754,8.35575529 L31.6740899,7.3212785 C32.5709209,6.02448041 33.9014309,5.3771391 35.6635144,5.3771391 L35.6635144,5.3771391 Z M33.2614244,12.5930907 C33.2593335,13.0754234 33.4888044,13.5281392 33.876168,13.8095 C34.2866893,14.1331706 34.7961567,14.3066412 35.3182555,14.2960637 C36.1014038,14.2939482 36.8529734,13.980855 37.4066508,13.42448 C38.0213801,12.842719 38.3287447,12.1615298 38.3287447,11.3766814 C37.7498045,10.9133881 36.9434986,10.6806837 35.9077219,10.6806837 C35.154047,10.6806837 34.5245811,10.8626162 34.0214294,11.2285967 C33.5140672,11.6009238 33.2614244,12.0515241 33.2614244,12.5930907 L33.2614244,12.5930907 Z M50.2907026,5.70080976 L44.0949895,20.0121297 L42.1792236,20.0121297 L44.4781426,15.0047543 L40.4024034,5.70080976 L42.4192206,5.70080976 L45.3644475,12.8363725 L45.404447,12.8363725 L48.2696749,5.70080976 L50.2907026,5.70080976 Z" id="Shape" fill="#5F6368"></path>
                                <path d="M16.3050098,8.57759132 C16.3050098,8.01400864 16.2583013,7.45252106 16.1606381,6.89731879 L8.2668999,6.89731879 L8.2668999,10.077685 L12.7870098,10.077685 C12.6001757,11.1042854 11.9972113,12.011465 11.116119,12.5876183 L11.116119,14.6533898 L13.814597,14.6533898 C15.3941939,13.2182443 16.3050098,11.0917148 16.3050098,8.57759132 L16.3050098,8.57759132 Z" id="Path" fill="#4285F4"></path>
                                <path d="M8.38192214,16.6276624 C10.6319815,16.6276624 12.5267683,15.8866466 13.9076788,14.6063243 L11.2198729,12.5127956 C10.471263,13.0223766 9.50906653,13.3132624 8.38192214,13.3132624 C6.20799262,13.3132624 4.36184431,11.8418472 3.70205247,9.85872771 L0.933887352,9.85872771 L0.933887352,12.0159541 C2.34863331,14.8441288 5.23099317,16.6276624 8.38192214,16.6276624 Z" id="Path" fill="#34A853"></path>
                                <path d="M3.61325732,9.97055563 C3.26335938,8.93841735 3.26335938,7.81762915 3.61325732,6.78549087 L3.61325732,4.64100724 L0.837400345,4.64100724 C-0.350132052,6.99234067 -0.350132052,9.76370583 0.837400345,12.1150393 L3.61325732,9.97055563 Z" id="Path" fill="#FBBC04"></path>
                                <path d="M8.35169473,3.3020243 C9.53534258,3.28291644 10.6789739,3.73301251 11.5361708,4.55677324 L13.9076788,2.16829174 C12.4038984,0.745818318 10.4136009,-0.035480519 8.35169473,-0.0121264777 C5.21355362,-0.0121264777 2.34289165,1.77339614 0.933887352,4.59923514 L3.69081803,6.75629932 C4.34793214,4.7733289 6.18658798,3.3020243 8.35169473,3.3020243 Z" id="Path" fill="#EA4335"></path>
                            </g>
                        </g>
                    </g>
                </g>
            </g>
        </g>
    </g>
</svg>