<?xml version="1.0" encoding="UTF-8"?>
<svg width="27px" height="21px" viewBox="0 0 27 21" version="1.1" xmlns="http://www.w3.org/2000/svg" xmlns:xlink="http://www.w3.org/1999/xlink">
    <title>120EAEDF-8B67-4A3B-84E1-3C25123C927C</title>
    <g id="home-+-interactions" stroke="none" stroke-width="1" fill="none" fill-rule="evenodd">
        <g id="1-home" transform="translate(-904.000000, -3724.000000)" fill-rule="nonzero">
            <g id="footer" transform="translate(0.000000, 2988.000000)">
                <g id="main" transform="translate(0.000000, 185.000000)">
                    <g id="payments" transform="translate(0.000000, 537.000000)">
                        <g id="payment-types" transform="translate(627.000000, 14.000000)">
                            <g id="mastercard-2" transform="translate(277.250400, 0.611200)">
                                <path d="M25.2447489,19.7758972 L25.2447489,19.8748176 L25.3022958,19.8748176 C25.3130985,19.8750952 25.3237513,19.8707409 25.333152,19.8622052 C25.3407691,19.8535635 25.3451272,19.8393127 25.3447231,19.8243682 C25.3451185,19.8096985 25.3407384,19.79575 25.333152,19.7875204 C25.3238585,19.7785654 25.3131296,19.77418 25.3022958,19.774908 L25.2447489,19.774908 L25.2447489,19.7758972 Z M25.293252,19.7387762 C25.3138212,19.7375054 25.3341919,19.7434494 25.3508896,19.7555945 C25.3644645,19.7667752 25.3719595,19.7837689 25.3710885,19.801392 C25.3717072,19.8165266 25.3657981,19.8311929 25.354878,19.8416266 C25.3419989,19.8528863 25.3258398,19.8596492 25.3088193,19.8609029 L25.373147,19.9346447 L25.3236147,19.9346447 L25.2644332,19.8614204 L25.2452635,19.8614204 L25.2452635,19.9346447 L25.2038365,19.9346447 L25.2038365,19.7389056 L25.2938953,19.7389056 L25.293252,19.7387762 Z M25.2803865,20.0021766 C25.3021138,20.0023823 25.3236396,19.9979738 25.3435563,19.9892394 C25.3627591,19.9809273 25.3802213,19.9690308 25.3950185,19.9541798 C25.4098437,19.9393471 25.4216822,19.9217761 25.4298841,19.9024312 C25.4467671,19.8614263 25.4467671,19.8153582 25.4298841,19.7743534 C25.4215614,19.7550749 25.4097375,19.7375255 25.3950185,19.7226048 C25.3802153,19.7077609 25.3627546,19.6958654 25.3435563,19.6875451 C25.3235198,19.6792861 25.3020398,19.675151 25.2803865,19.6753748 C25.2583602,19.6751784 25.2365068,19.6793097 25.2160587,19.6875451 C25.19643,19.6957017 25.1785602,19.7076079 25.1634387,19.7226048 C25.1169139,19.7705934 25.1033926,19.8418862 25.1290877,19.9037249 C25.1369226,19.9231421 25.1486108,19.94075 25.1634387,19.9554735 C25.1785684,19.9704601 25.1964361,19.982365 25.2160587,19.9905332 C25.2363841,19.9992621 25.2582859,20.0036668 25.2803865,20.0034703 M25.2803865,19.6282929 C25.3369293,19.6282353 25.3912267,19.6505399 25.4315566,19.6903913 C25.4510013,19.7095261 25.466481,19.7323472 25.4771006,19.7575351 C25.4993207,19.8097988 25.4993207,19.8689263 25.4771006,19.92119 C25.4662314,19.9462399 25.4507825,19.9690156 25.4315566,19.9883338 C25.4118175,20.0073662 25.3888565,20.0227004 25.3637552,20.0336139 C25.337396,20.0448753 25.3090255,20.0505986 25.2803865,20.0504322 C25.2514105,20.0506415 25.2226952,20.0449193 25.1959885,20.0336139 C25.1705982,20.0229544 25.1474246,20.0075949 25.1276725,19.9883338 C25.1084476,19.9683081 25.0932071,19.9447713 25.0827717,19.9189907 C25.0605517,19.866727 25.0605517,19.8075995 25.0827717,19.7553358 C25.0933913,19.7301479 25.108871,19.7073268 25.1283157,19.6881919 C25.1478003,19.6685984 25.1710431,19.6531931 25.1966318,19.6429119 C25.2233385,19.6316065 25.2520538,19.6258843 25.2810297,19.6260881 M5.58066615,18.8723752 C5.58066615,18.4991384 5.82382492,18.1925279 6.22124156,18.1925279 C6.60103241,18.1925279 6.85731404,18.4859425 6.85731404,18.8723752 C6.85731404,19.2588079 6.60103241,19.5522225 6.22124156,19.5522225 C5.82382492,19.5522225 5.58066615,19.245612 5.58066615,18.8723752 M7.29023958,18.8723752 L7.29023958,17.8102351 L6.83106833,17.8102351 L6.83106833,18.0689781 C6.68543038,17.877767 6.46452899,17.7578396 6.16411855,17.7578396 C5.57230355,17.7578396 5.10785742,18.224612 5.10785742,18.8728927 C5.10785742,19.5211733 5.57204624,19.9879457 6.16411855,19.9879457 C6.46440034,19.9879457 6.68543038,19.867889 6.83106833,19.6768072 L6.83106833,19.9346447 L7.28972496,19.9346447 L7.28972496,18.8723752 L7.29023958,18.8723752 Z M22.8050559,18.8723752 C22.8050559,18.4991384 23.0482146,18.1925279 23.4457599,18.1925279 C23.8259368,18.1925279 24.0818324,18.4859425 24.0818324,18.8723752 C24.0818324,19.2588079 23.8259368,19.5522225 23.4457599,19.5522225 C23.0483433,19.5522225 22.8050559,19.245612 22.8050559,18.8723752 M24.5151439,18.8723752 L24.5151439,16.9576768 L24.0555867,16.9576768 L24.0555867,18.0689781 C23.9099488,17.877767 23.6890474,17.7578396 23.3886369,17.7578396 C22.7968219,17.7578396 22.3323758,18.224612 22.3323758,18.8728927 C22.3323758,19.5211733 22.7965646,19.9879457 23.3886369,19.9879457 C23.6890474,19.9879457 23.9099488,19.867889 24.0555867,19.6768072 L24.0555867,19.9346447 L24.5151439,19.9346447 L24.5151439,18.8723752 Z M12.9891608,18.1706641 C13.2850683,18.1706641 13.4750923,18.3572178 13.5235954,18.6856921 L12.4279657,18.6856921 C12.4769835,18.3790816 12.6621186,18.1706641 12.9892894,18.1706641 M12.9984239,17.7566753 C12.3795913,17.7566753 11.9466658,18.2094756 11.9466658,18.8717283 C11.9466658,19.5469182 12.3969598,19.9867814 13.0291726,19.9867814 C13.3472088,19.9867814 13.6384847,19.9069592 13.8947664,19.6892269 L13.669748,19.3470393 C13.4927181,19.4893479 13.2673138,19.5691701 13.0554183,19.5691701 C12.7595108,19.5691701 12.4901063,19.4313895 12.4238488,19.0490967 L13.9917726,19.0490967 C13.9962755,18.9916557 14.0009071,18.9336973 14.0009071,18.871599 C13.9962755,18.2096049 13.5892097,17.7565459 12.9981666,17.7565459 M18.5419294,18.871599 C18.5419294,18.4983621 18.7850881,18.1917517 19.1825048,18.1917517 C19.5622956,18.1917517 19.8185772,18.4851662 19.8185772,18.871599 C19.8185772,19.2580317 19.5622956,19.5514463 19.1825048,19.5514463 C18.7850881,19.5514463 18.5418007,19.2448358 18.5418007,18.871599 M20.2513741,18.871599 L20.2513741,17.8102351 L19.7924602,17.8102351 L19.7924602,18.0689781 C19.6463076,17.877767 19.4259209,17.7578396 19.1255104,17.7578396 C18.5336954,17.7578396 18.0692493,18.224612 18.0692493,18.8728927 C18.0692493,19.5211733 18.5334381,19.9879457 19.1255104,19.9879457 C19.4259209,19.9879457 19.6463076,19.867889 19.7924602,19.6768072 L19.7924602,19.9346447 L20.2515028,19.9346447 L20.2515028,18.8723752 L20.2513741,18.871599 Z M15.9488791,18.871599 C15.9488791,19.5157397 16.3947988,19.986652 17.075386,19.986652 C17.3934223,19.986652 17.6053178,19.9154977 17.8344531,19.733472 L17.6139377,19.3602352 C17.4415394,19.4848199 17.2605212,19.5514463 17.0607193,19.5514463 C16.69418,19.5469182 16.4246469,19.2804129 16.4246469,18.871599 C16.4246469,18.462785 16.69418,18.196409 17.0607193,18.1917517 C17.2600066,18.1917517 17.4410248,18.258378 17.6139377,18.3829628 L17.8344531,18.0097259 C17.6049318,17.8277002 17.3930363,17.7565459 17.075386,17.7565459 C16.3947988,17.7565459 15.9488791,18.2273288 15.9488791,18.871599 M21.8683156,17.7565459 C21.6034141,17.7565459 21.4308872,17.8811307 21.3116236,18.0676844 L21.3116236,17.8102351 L20.8565693,17.8102351 L20.8565693,19.9334803 L21.3162552,19.9334803 L21.3162552,18.7432624 C21.3162552,18.3918894 21.4663961,18.1966678 21.7665492,18.1966678 C21.8648379,18.1952412 21.9624347,18.2134006 22.0537081,18.2500982 L22.1952291,17.8148924 C22.0935913,17.7746579 21.9610762,17.756934 21.8680583,17.756934 M9.56036474,17.9790649 C9.33946336,17.8326163 9.0350646,17.756934 8.69927391,17.756934 C8.16432461,17.756934 7.81991401,18.0147714 7.81991401,18.4366519 C7.81991401,18.7828501 8.07632429,18.9964425 8.54848974,19.0630688 L8.7654028,19.094118 C9.01718149,19.1296951 9.13605911,19.1963215 9.13605911,19.3162488 C9.13605911,19.4804213 8.96880705,19.5740863 8.65475913,19.5740863 C8.33672289,19.5740863 8.1072016,19.4718828 7.95242911,19.3519554 L7.73667394,19.7119963 C7.98845263,19.89855 8.30648887,19.9875576 8.65089947,19.9875576 C9.26072623,19.9875576 9.61414271,19.6988004 9.61414271,19.2945144 C9.61414271,18.9212776 9.33598966,18.726056 8.87643245,18.6594297 L8.660034,18.627863 C8.46126135,18.6019887 8.30198593,18.5617542 8.30198593,18.4194455 C8.30198593,18.2641997 8.45212682,18.1707935 8.70403416,18.1707935 C8.9735673,18.1707935 9.23448052,18.272997 9.36236403,18.3528192 L9.56113667,17.9795824 L9.56036474,17.9790649 Z M15.4850762,17.7573221 C15.2201747,17.7573221 15.0476477,17.8819069 14.9288988,18.0684606 L14.9288988,17.8102351 L14.4738445,17.8102351 L14.4738445,19.9334803 L14.9330157,19.9334803 L14.9330157,18.7432624 C14.9330157,18.3918894 15.0831566,18.1966678 15.3833098,18.1966678 C15.4815985,18.1952412 15.5791952,18.2134006 15.6704687,18.2500982 L15.8119897,17.8148924 C15.7103519,17.7746579 15.5778368,17.756934 15.4848189,17.756934 M11.5667463,17.8102351 L10.8159131,17.8102351 L10.8159131,17.1660943 L10.3517243,17.1660943 L10.3517243,17.8102351 L9.92343038,17.8102351 L9.92343038,18.2322449 L10.3517243,18.2322449 L10.3517243,19.2008495 C10.3517243,19.6934962 10.5418771,19.9869108 11.0850603,19.9869108 C11.2843476,19.9869108 11.5138689,19.9248124 11.6595068,19.8227383 L11.5268631,19.427379 C11.389845,19.5072012 11.2397041,19.5474357 11.1203119,19.5474357 C10.8907906,19.5474357 10.8159131,19.4051271 10.8159131,19.1920522 L10.8159131,18.2326331 L11.5667463,18.2326331 L11.5667463,17.8102351 Z M4.70182087,19.9339978 L4.70182087,18.6014712 C4.70182087,18.0996391 4.38378463,17.7619795 3.87109272,17.7574515 C3.60155958,17.7529235 3.32353519,17.8372737 3.12887951,18.1352163 C2.98324156,17.8997602 2.75372026,17.7574515 2.43105243,17.7574515 C2.20551945,17.7574515 1.98513269,17.8240778 1.81260575,18.0727299 L1.81260575,17.8102351 L1.35304853,17.8102351 L1.35304853,19.9334803 L1.8162081,19.9334803 L1.8162081,18.7561996 C1.8162081,18.3876201 2.01948369,18.1917517 2.33340295,18.1917517 C2.63831634,18.1917517 2.7925742,18.3916306 2.7925742,18.7515422 L2.7925742,19.9332216 L3.25676302,19.9332216 L3.25676302,18.7559408 C3.25676302,18.3873614 3.46865852,18.1914929 3.77344325,18.1914929 C4.08697654,18.1914929 4.23660281,18.3913719 4.23660281,18.7512834 L4.23660281,19.9329628 L4.70182087,19.9339978 Z" id="Shape" fill="#231F20"></path>
                                <path d="M25.8061016,13.5762655 L25.8061016,12.5762655 L25.6861631,12.5762655 L25.5474181,13.2625155 L25.4094407,12.5762655 L25.2891183,12.5762655 L25.2891183,13.5762655 L25.3743227,13.5762655 L25.3743227,12.8229322 L25.5040483,13.4729322 L25.5923231,13.4729322 L25.7220487,12.8212655 L25.7220487,13.5762655 L25.8064854,13.5762655 L25.8061016,13.5762655 Z M25.0452112,13.5762655 L25.0452112,12.7475155 L25.1987326,12.7475155 L25.1987326,12.5787655 L24.8064854,12.5787655 L24.8064854,12.7475155 L24.9600068,12.7475155 L24.9600068,13.5762655 L25.0444436,13.5762655 L25.0452112,13.5762655 Z" id="Shape" fill="#F79410"></path>
                                <polygon id="Path" fill="#FF5F00" points="16.3012643 14.208556 9.34268089 14.208556 9.34268089 1.75160232 16.3013929 1.75160232"></polygon>
                                <path d="M9.82289104,7.98007906 C9.82289104,5.44542897 11.012466,3.18755027 12.8649919,1.73247575 C11.4626939,0.629435814 9.72842502,0.0307782478 7.94279047,0.0334018178 C3.54412055,0.0334018178 -0.0215118703,3.59120201 -0.0215118703,7.98007906 C-0.0215118703,12.3689561 3.54412055,15.9267565 7.94279047,15.9267565 C9.72846917,15.9294088 11.4627881,15.3307497 12.8649919,14.2276824 C11.0127237,12.772865 9.82289104,10.5148577 9.82289104,7.98007906" id="Path" fill="#EB001B"></path>
                                <path d="M25.7514957,7.98007907 C25.7514957,12.3689563 22.1860416,15.9267565 17.7875915,15.9267565 C16.0018134,15.9293627 14.2673922,15.3307166 12.8649919,14.2276826 C14.7178118,12.772608 15.9073273,10.5148578 15.9073273,7.98007907 C15.9073273,5.44530032 14.7178118,3.18755009 12.8649919,1.73247551 C14.2673576,0.62946886 16.0017287,0.0308243854 17.7874627,0.0334018178 C22.1859127,0.0334018178 25.7514957,3.59120185 25.7514957,7.98007907" id="Path" fill="#F79E1B"></path>
                            </g>
                        </g>
                    </g>
                </g>
            </g>
        </g>
    </g>
</svg>