<?xml version="1.0" encoding="UTF-8"?>
<svg width="34px" height="20px" viewBox="0 0 34 20" version="1.1" xmlns="http://www.w3.org/2000/svg" xmlns:xlink="http://www.w3.org/1999/xlink">
    <title>13FEE3CC-D4A9-4A56-9927-8044F3EC410F</title>
    <g id="home-+-interactions" stroke="none" stroke-width="1" fill="none" fill-rule="evenodd">
        <g id="1-home" transform="translate(-749.000000, -3724.000000)" fill-rule="nonzero">
            <g id="footer" transform="translate(0.000000, 2988.000000)">
                <g id="main" transform="translate(0.000000, 185.000000)">
                    <g id="payments" transform="translate(0.000000, 537.000000)">
                        <g id="payment-types" transform="translate(627.000000, 14.000000)">
                            <g id="maestro-2" transform="translate(122.000000, 0.000000)">
                                <path d="M16.560149,17.4118148 C18.6397401,15.5112462 19.822443,12.8199735 19.8173516,10 C19.8225092,7.18001263 18.639795,4.48871423 16.560149,2.58818522 C14.8015271,0.980013124 12.4686181,0 9.90857883,0 C4.43638644,0 0,4.47709578 0,10 C0,15.5227269 4.43638644,20 9.90857883,20 C12.4686181,20 14.8017042,19.0199869 16.560149,17.4118148 Z" id="Path" fill="#3A9BD9"></path>
                                <path d="M23.2217524,0 C20.6564544,0 18.3183984,0.980004434 16.5565189,2.58816227 C16.1972055,2.91638698 15.8621752,3.27023014 15.5540641,3.64690756 L17.5582641,3.64690756 C17.8334195,3.98311607 18.0864431,4.33683469 18.3157375,4.70583019 L14.7971229,4.70583019 C14.585309,5.0470501 14.3941489,5.4006587 14.2246717,5.76475283 L18.8873017,5.76475283 C19.0477912,6.10935937 19.1884574,6.46285035 19.308613,6.82349812 L13.8042474,6.82349812 C13.6888291,7.17086699 13.5925954,7.52431512 13.5159817,7.88224341 L19.597056,7.88224341 C19.7459288,8.57829732 19.82085,9.28812372 19.8205727,9.99991133 C19.8205727,11.1100865 19.6403402,12.178231 19.3087904,13.1761472 L13.8042474,13.1761472 C13.9239785,13.5368829 14.0643514,13.8904402 14.2246717,14.2350698 L18.8873017,14.2350698 C18.7181356,14.5991873 18.5272102,14.9528004 18.3155601,15.2939925 L14.7971229,15.2939925 C15.0261909,15.662966 15.2789771,16.016684 15.5538867,16.3529151 L17.5582641,16.3529151 C17.2505423,16.7297651 16.9157392,17.083678 16.5565189,17.4118377 C18.3183984,19.0199956 20.6564544,20 23.2217524,20 C28.7050081,20 33.1506849,15.5227666 33.1506849,10.0000887 C33.1506849,4.47705609 28.7050081,0 23.2217524,0 Z" id="Path" fill="#CC2131"></path>
                                <path d="M31.7808239,15.6600919 C31.7808239,15.3838701 32.0045528,15.1598174 32.2811004,15.1598174 C32.5570949,15.1598174 32.7808239,15.3838701 32.7808239,15.6600919 C32.7808239,15.9357646 32.5570949,16.1598174 32.2811004,16.1598174 C32.0039977,16.1589089 31.7800609,15.935218 31.7808239,15.6600919 L31.7808239,15.6600919 Z M32.2808239,16.0395538 C32.4904469,16.0395538 32.6605237,15.8701413 32.6605237,15.6598174 C32.6605237,15.4494934 32.4904469,15.2795318 32.2808239,15.2795318 C32.0706477,15.2795318 31.9005709,15.4494934 31.9005709,15.6598174 C31.9005709,15.8701413 32.0709242,16.0395538 32.2808239,16.0395538 Z M32.2133463,15.8792023 L32.1107471,15.8792023 L32.1107471,15.4393341 L32.2965871,15.4393341 C32.3350272,15.4393341 32.374297,15.4404324 32.4083123,15.4618492 C32.4441631,15.4869923 32.465178,15.5281053 32.4644515,15.571679 C32.4644515,15.6211024 32.435414,15.66778 32.3884009,15.6853528 L32.4694293,15.8789277 L32.3554917,15.8789277 L32.2885672,15.7051221 L32.2136228,15.7051221 L32.2136228,15.8792023 L32.2136228,15.6304379 L32.2703151,15.6304379 C32.2907796,15.6304379 32.3140096,15.6315362 32.3325383,15.6213769 C32.3492407,15.6099758 32.3590179,15.5909739 32.3585337,15.5708552 C32.3578461,15.5529387 32.3486026,15.5364192 32.3336445,15.5263742 C32.3159454,15.5156658 32.2871845,15.5184115 32.2678261,15.5184115 L32.2138993,15.5184115 L32.2138993,15.8792023 L32.2133463,15.8792023 L32.2133463,15.8792023 Z" id="Shape" fill="#CC2131"></path>
                                <path d="M29.6801997,12.1673905 C29.6801997,11.9881186 29.8233383,11.8427052 29.9999172,11.8427052 C30.1764961,11.8427052 30.3196347,11.9881186 30.3196347,12.1673905 C30.3196347,12.3466624 30.1764961,12.4917194 29.9999172,12.4917194 C29.8233383,12.4917194 29.6801997,12.3464842 29.6801997,12.1673905 Z M29.9997403,12.4136666 C30.1338553,12.4136666 30.242669,12.3033592 30.242669,12.1672123 C30.242669,12.030709 30.1338553,11.9204015 29.9997403,11.9204015 C29.8652714,11.9204015 29.7568116,12.030709 29.7568116,12.1672123 C29.7568116,12.3033592 29.8654483,12.4136666 29.9997403,12.4136666 Z M29.9565687,12.3095963 L29.8909266,12.3095963 L29.8909266,12.0244719 L30.0098254,12.0244719 C30.0344191,12.0244719 30.0598974,12.0248283 30.0813063,12.0390845 C30.1042354,12.055247 30.1176952,12.0818256 30.1172236,12.1100092 C30.1172236,12.1424421 30.0988226,12.1723802 30.0685671,12.1837851 L30.1204084,12.3094181 L30.047866,12.3094181 L30.0046944,12.1966157 L29.9567456,12.1966157 L29.9567456,12.3095963 L29.9567456,12.1481446 L29.9930168,12.1481446 C30.0064637,12.1481446 30.0213261,12.1492138 30.0328267,12.1426203 C30.0433905,12.1351134 30.0496101,12.1228515 30.0494584,12.109831 C30.0492189,12.0980516 30.0432712,12.0871358 30.0335344,12.0806058 C30.0222107,12.0740123 30.0038097,12.0754379 29.9917783,12.0754379 L29.9569226,12.0754379 L29.9569226,12.3095963 L29.9565687,12.3095963 Z M8.65704959,12.4917194 L7.42453601,12.4917194 L8.15703762,8.57553661 L6.47051459,12.4917194 L5.34663772,12.4917194 L5.14121879,8.59799015 L4.40641705,12.4917194 L3.28767123,12.4917194 L4.24363892,7.39743848 L6.16689798,7.39743848 L6.26863431,10.5512701 L7.62464696,7.39743848 L9.62876429,7.39743848 L8.65704959,12.4917194 L8.65704959,12.4917194 Z M22.4314416,12.4409317 C22.0942078,12.5348445 21.830578,12.5752965 21.5457162,12.5752965 C20.9151279,12.5752965 20.5708168,12.2543534 20.5708168,11.6655717 C20.5708168,11.5490271 20.5835559,11.424998 20.607088,11.2938408 L20.6821075,10.888786 L20.7397875,10.560893 L21.3111034,7.39726027 L22.5368935,7.39726027 L22.3592531,8.34868456 L22.988249,8.34868456 L22.8192782,9.35588629 L22.1876283,9.35588629 L21.8627797,11.0844526 C21.8507389,11.1409164 21.8436929,11.1983444 21.8417247,11.2560618 C21.8417247,11.4700833 21.9692933,11.5631051 22.2622939,11.5631051 C22.4026016,11.5631051 22.5114152,11.5502745 22.5947506,11.5244351 L22.4314416,12.4409317 L22.4314416,12.4409317 Z M26.0313155,8.38272128 C25.9279868,8.34137825 25.903747,8.34137825 25.8917155,8.3379924 C25.8264274,8.32337977 25.7915716,8.31482604 25.7855559,8.31375683 C25.7446073,8.30654621 25.7030944,8.30308682 25.661526,8.30339898 C25.2568808,8.30339898 24.9651187,8.48625705 24.5878981,8.97613631 L24.6967117,8.34832815 L23.5804429,8.34832815 L22.8291865,12.4915412 L24.0625847,12.4915412 C24.503855,9.95767686 24.6928192,9.5139521 25.2844823,9.5139521 C25.3290694,9.5139521 25.3805568,9.51751615 25.4403601,9.52446606 L25.5843833,9.55422591 L26.0313155,8.38272128 L26.0313155,8.38272128 Z M17.5454435,9.65758349 C17.5454435,10.1809649 17.8361441,10.5414689 18.4950417,10.8123371 C19.0000077,11.0204778 19.0780351,11.0814232 19.0780351,11.2696052 C19.0780351,11.5274646 18.8554537,11.6438309 18.3623421,11.6438309 C17.9900756,11.6438309 17.644172,11.5930432 17.2448348,11.4798844 L17.0737408,12.4355856 L17.1289438,12.4450303 L17.357364,12.4874426 C17.4309681,12.5002732 17.5394278,12.5125692 17.6832742,12.5236177 C17.9798135,12.5469623 18.2092953,12.5580108 18.3710118,12.5580108 C19.6866838,12.5580108 20.2944478,12.1205232 20.2944478,11.1755142 C20.2944478,10.6068693 20.0403723,10.2734521 19.4156228,10.0223644 C18.8927865,9.81261985 18.8322755,9.76610894 18.8322755,9.572759 C18.8322755,9.349471 19.0396407,9.23470845 19.4425166,9.23470845 C19.6875684,9.23470845 20.0216175,9.258053 20.338504,9.2969012 L20.5161445,8.33781419 C20.1934192,8.29326352 19.7036693,8.25673196 19.4189845,8.25673196 C18.0240467,8.25691016 17.5411972,8.89345025 17.5454435,9.65758349 L17.5454435,9.65758349 Z M12.6638688,12.4917194 L11.6396051,12.4917194 L11.663491,12.0622509 C11.3515585,12.4022617 10.9357666,12.5633569 10.3706433,12.5633569 C9.70272219,12.5633569 9.24428941,12.1018119 9.24428941,11.4317697 C9.24428941,10.4224295 10.0406638,9.83418238 11.4094156,9.83418238 C11.5497232,9.83418238 11.7278945,9.84540915 11.9115507,9.86608066 C11.9497682,9.72993379 11.9602072,9.67112689 11.9602072,9.59699456 C11.9602072,9.32274059 11.7452339,9.22009583 11.1696717,9.22009583 C10.8177524,9.22009583 10.4200076,9.26500291 10.1454079,9.33557118 L9.97466783,9.37958725 L9.86408486,9.40631766 L10.0350019,8.47485208 C10.6494894,8.31518245 11.0550192,8.25477173 11.5106211,8.25477173 C12.5699175,8.25477173 13.1297327,8.67568654 13.1297327,9.47011423 C13.1297327,9.67451274 13.1111548,9.82972731 13.0295888,10.2909159 L12.7719747,11.7607319 L12.7286262,12.0244719 L12.6971322,12.2351075 L12.6760772,12.3792735 L12.6638688,12.4917194 L12.6638688,12.4917194 Z M11.7646965,10.6458957 C11.6733098,10.6344415 11.5813038,10.6287279 11.4892122,10.6287878 C10.7906817,10.6287878 10.4368162,10.8406713 10.4368162,11.2590913 C10.4368162,11.5169506 10.6095026,11.68161 10.8789712,11.68161 C11.3814602,11.6817881 11.7434646,11.2585567 11.7646965,10.6458957 L11.7646965,10.6458957 Z M16.7073131,12.4022617 C16.2956622,12.5147857 15.8709082,12.5713027 15.4443671,12.5703198 C14.0664148,12.5692376 13.3482447,11.9326975 13.3482447,10.7141474 C13.3482447,9.29191152 14.2619255,8.24479238 15.5022241,8.24479238 C16.5169334,8.24479238 17.1648612,8.83125751 17.1648612,9.75078351 C17.1648612,10.0560448 17.120628,10.3536433 17.0135837,10.7736671 L14.5628881,10.7736671 C14.5553927,10.8166278 14.5514277,10.8601379 14.5510336,10.9037551 C14.5510336,11.3840114 14.9163997,11.6290401 15.6322697,11.6290401 C16.0724784,11.6290401 16.4704001,11.5479579 16.9122012,11.3669039 L16.7073131,12.4022617 Z M16.0508926,9.93700534 C16.057616,9.85075523 16.0611547,9.78018695 16.0611547,9.72565692 C16.0611547,9.3892102 15.8451198,9.19176159 15.4781612,9.19176159 C15.0860782,9.19176159 14.8056398,9.45657083 14.6918721,9.9345105 L16.0508926,9.93700534 Z M29.8626174,10.6132846 C29.6780765,11.9915044 28.72954,12.6027397 27.4685403,12.6027397 C26.0741332,12.6027397 25.5109562,11.7445155 25.5109562,10.6929412 C25.5109562,9.22455089 26.4648007,8.22964515 27.9379429,8.22964515 C29.2166359,8.22964515 29.8955269,9.0477738 29.8955269,10.0995262 C29.8955269,10.3554253 29.895173,10.3723546 29.8626174,10.6132846 Z M28.5933018,10.0831316 C28.5933018,9.64974257 28.4199077,9.24058914 27.9145877,9.24058914 C27.2855918,9.24058914 26.8958089,9.99492122 26.8958089,10.6608648 C26.8958089,11.2225597 27.1629774,11.5999931 27.60354,11.5919739 C27.8707084,11.5919739 28.4404319,11.2227379 28.5531381,10.5778223 C28.579501,10.4274192 28.5933018,10.2624035 28.5933018,10.0831316 L28.5933018,10.0831316 Z" id="Shape" fill="#FFFFFF"></path>
                            </g>
                        </g>
                    </g>
                </g>
            </g>
        </g>
    </g>
</svg>