<?xml version="1.0" encoding="UTF-8"?>
<svg width="83px" height="21px" viewBox="0 0 83 21" version="1.1" xmlns="http://www.w3.org/2000/svg" xmlns:xlink="http://www.w3.org/1999/xlink">
    <title>CB511B84-60F4-4944-9CF7-A352B7EF9103</title>
    <g id="home-+-interactions" stroke="none" stroke-width="1" fill="none" fill-rule="evenodd">
        <g id="1-home" transform="translate(-802.000000, -3724.000000)" fill-rule="nonzero">
            <g id="footer" transform="translate(0.000000, 2988.000000)">
                <g id="main" transform="translate(0.000000, 185.000000)">
                    <g id="payments" transform="translate(0.000000, 537.000000)">
                        <g id="payment-types" transform="translate(627.000000, 14.000000)">
                            <g id="paypal-2" transform="translate(175.149600, 0.372000)">
                                <path d="M30.6375273,4.52344182 L26.1083352,4.52344182 C25.7985569,4.52324589 25.5347338,4.74935069 25.4864737,5.05639726 L23.6546642,16.7103092 C23.6376212,16.8197511 23.6691744,16.9311948 23.741016,17.0152976 C23.8128575,17.0994005 23.9177875,17.1477339 24.0281785,17.1475722 L26.1904554,17.1475722 C26.5004483,17.1477165 26.7643497,16.9212626 26.812317,16.6139519 L27.3063625,13.4707117 C27.3542909,13.1636498 27.6178198,12.9372744 27.9275618,12.9370919 L29.3613534,12.9370919 C32.344832,12.9370919 34.0667064,11.4884103 34.5163805,8.6176286 C34.7190319,7.36166159 34.5249899,6.37483036 33.9388903,5.68371624 C33.2951742,4.92481976 32.153439,4.52344182 30.6375273,4.52344182 L30.6375273,4.52344182 Z M31.1600499,8.77977461 C30.9123649,10.4105381 29.6706285,10.4105381 28.4699522,10.4105381 L27.7865005,10.4105381 L28.2659763,7.36498425 C28.2949753,7.1809086 28.4531046,7.04534397 28.6388284,7.04534397 L28.9520771,7.04534397 C29.7699674,7.04534397 30.5414996,7.04534397 30.9401798,7.51317507 C31.1779309,7.79227885 31.2507795,8.20694732 31.1600499,8.77977461 L31.1600499,8.77977461 Z M44.1760961,8.72727652 L42.0071966,8.72727652 C41.8214728,8.72727942 41.6633435,8.86284115 41.6343445,9.0469168 L41.5383169,9.65562885 L41.3866595,9.43500396 C40.9171176,8.7511997 39.8700855,8.52260041 38.8250402,8.52260041 C36.4283234,8.52260041 34.3812796,10.3440848 33.9825995,12.8992135 C33.7753123,14.1737874 34.0700177,15.3925406 34.7905559,16.2424781 C35.4514908,17.0239687 36.3971972,17.3495898 37.5223759,17.3495898 C39.4535244,17.3495898 40.5243978,16.1035907 40.5243978,16.1035907 L40.4277079,16.7083156 C40.4102714,16.8177352 40.4414586,16.9293291 40.5130526,17.0136962 C40.5846467,17.0980633 40.6894673,17.146742 40.7998977,17.1469072 L42.7535629,17.1469072 C43.0635558,17.147052 43.3274572,16.920598 43.3754245,16.6132874 L44.5476236,9.16453911 C44.5650846,9.05535948 44.5339562,8.94398794 44.4624608,8.85984269 C44.3909654,8.77569744 44.2862944,8.72724233 44.1760961,8.72727652 L44.1760961,8.72727652 Z M41.152882,12.9630087 C40.943608,14.2063496 39.9601528,15.0410028 38.7058335,15.0410028 C38.0760248,15.0410028 37.5727077,14.8383203 37.2495251,14.4542203 C36.9289915,14.0727785 36.8071358,13.5298551 36.9091237,12.9251303 C37.1044903,11.6924219 38.104502,10.8305229 39.3396157,10.8305229 C39.955517,10.8305229 40.4561851,11.0358635 40.7859903,11.4232861 C41.1164577,11.814696 41.2475851,12.3609419 41.152882,12.9630087 L41.152882,12.9630087 Z M55.7272245,8.72727517 L53.5477289,8.72727517 C53.3390499,8.72760799 53.1439946,8.83131482 53.0265307,9.0043867 L50.0205353,13.4474531 L48.7463482,9.17782976 C48.6660399,8.91044899 48.4206724,8.72741144 48.1423676,8.72727517 L46.0006208,8.72727517 C45.8786405,8.72695103 45.7640214,8.78579067 45.6929104,8.88523944 C45.6217993,8.98468822 45.6029618,9.11248766 45.6423384,9.22833426 L48.0430287,16.2976343 L45.7860487,19.4947017 C45.7042781,19.6102593 45.693637,19.7619547 45.7584691,19.8878668 C45.8233011,20.013779 45.9527592,20.0927818 46.0939993,20.0927818 L48.270846,20.0927818 C48.4771524,20.0930663 48.6704607,19.991734 48.7880706,19.8216518 L56.0371619,9.32203338 C56.1172444,9.20625246 56.1266445,9.0554308 56.0615619,8.93054017 C55.9964794,8.80564954 55.8676769,8.72727517 55.7272245,8.72727517 L55.7272245,8.72727517 Z" id="Shape" fill="#253B80"></path>
                                <path d="M63.0790104,4.52410062 L58.5576028,4.52410062 C58.2486525,4.52423054 57.9856931,4.74835034 57.9375619,5.05256038 L56.1091681,16.6081699 C56.0919577,16.7165018 56.1231981,16.8269136 56.1946586,16.9103155 C56.2661192,16.9937174 56.3706329,17.0417441 56.4806639,17.0417441 L58.8008599,17.0417441 C59.0171033,17.0414281 59.2009988,16.8843833 59.2344919,16.6714269 L59.7533961,13.3958989 C59.8012352,13.0914271 60.0642727,12.8669612 60.3734371,12.8667802 L61.8038941,12.8667802 C64.7824705,12.8667802 66.5004731,11.4303185 66.9499698,8.58375223 C67.1529043,7.33837947 66.9579021,6.35987231 66.3728954,5.67458783 C65.7310406,4.92209276 64.5920954,4.52410062 63.0790104,4.52410062 L63.0790104,4.52410062 Z M63.6005587,8.74453051 C63.3539965,10.3615383 62.1145756,10.3615383 60.9154772,10.3615383 L60.233961,10.3615383 L60.7132037,7.34167411 C60.7415909,7.15910893 60.8993665,7.0245016 61.0846995,7.02472975 L61.3973641,7.02472975 C62.2130683,7.02472975 62.9838228,7.02472975 63.3817596,7.48861492 C63.6190674,7.76536442 63.691119,8.1765351 63.6005587,8.74453051 L63.6005587,8.74453051 Z M76.591673,8.69247525 L74.4281398,8.69247525 C74.2427034,8.69196678 74.0847696,8.82670899 74.0566441,9.00941932 L73.9607955,9.6129968 L73.8087599,9.39423291 C73.3400935,8.71619663 72.2956748,8.48952561 71.2525782,8.48952561 C68.8603305,8.48952561 66.8177649,10.2956456 66.4198281,12.8292214 C66.2135885,14.0930441 66.5064223,15.3015169 67.225617,16.144285 C67.8866415,16.9191836 68.8292624,17.242058 69.952343,17.242058 C71.8798904,17.242058 72.948767,16.0065692 72.948767,16.0065692 L72.8522574,16.6061931 C72.8348169,16.7149171 72.8661141,16.8257939 72.9378719,16.9094994 C73.0096296,16.9932048 73.1146198,17.0413074 73.2250753,17.0410852 L75.1744365,17.0410852 C75.4836009,17.0409042 75.7466384,16.8164383 75.7944774,16.5119665 L76.9651518,9.12604946 C76.9819461,9.01745788 76.9502824,8.90697415 76.8784762,8.82361388 C76.8066701,8.74025361 76.701897,8.69234693 76.591673,8.69247525 L76.591673,8.69247525 Z M73.5740962,12.8924784 C73.3665345,14.1253315 72.3835911,14.9529443 71.1316107,14.9529443 C70.5042985,14.9529443 70.0005978,14.7519715 69.6780178,14.3711114 C69.358082,13.9928871 69.2377755,13.4545434 69.3382513,12.8549195 C69.5345755,11.6326092 70.5314005,10.7779804 71.7642111,10.7779804 C72.3789639,10.7779804 72.8786984,10.981589 73.2078886,11.3657436 C73.5390619,11.7538519 73.6699447,12.2954902 73.5740962,12.8924784 L73.5740962,12.8924784 Z M79.1438885,4.84104469 L77.2883928,16.6081699 C77.2711823,16.7165018 77.3024227,16.8269136 77.3738833,16.9103155 C77.4453438,16.9937174 77.5498575,17.0417441 77.6598886,17.0417441 L79.5252997,17.0417441 C79.8353202,17.0417441 80.0984079,16.8177088 80.1460017,16.5126254 L81.9757175,4.95767484 C81.992907,4.84928075 81.9616795,4.73881442 81.8902439,4.65531491 C81.8188083,4.5718154 81.7143109,4.5236359 81.6042217,4.52344169 L79.5153843,4.52344169 C79.330146,4.52409552 79.1727601,4.65864955 79.1438885,4.84104469 L79.1438885,4.84104469 Z" id="Shape" fill="#179BD7"></path>
                                <path d="M4.73781858,19.2156364 L5.0844706,17.0144308 L4.31229163,16.9965402 L0.625054208,16.9965402 L3.18749532,0.753868558 C3.2032626,0.65129311 3.29180974,0.575740649 3.39561909,0.576284893 L9.61281971,0.576284893 C11.6768243,0.576284893 13.1012128,1.0056621 13.8448907,1.85314617 C14.1935312,2.25071493 14.4155741,2.66617428 14.52295,3.12337835 C14.6356285,3.60311132 14.6376169,4.17627295 14.5275897,4.87533135 L14.5196359,4.92635267 L14.5196359,5.37428014 L14.8682764,5.57173929 C15.1344343,5.70654164 15.3736729,5.88889202 15.5741739,6.10978234 C15.8724405,6.44970363 16.0653195,6.88172835 16.1468457,7.39392943 C16.2310231,7.92070803 16.2031849,8.54754144 16.0653195,9.25720167 C15.906244,10.0735429 15.649072,10.7845283 15.3017571,11.3663039 C14.9953166,11.8874811 14.5832952,12.3388751 14.0921205,12.6915331 C13.6308016,13.0188647 13.082654,13.2673452 12.4629223,13.4263727 C11.8624123,13.5827498 11.1777249,13.6616009 10.426756,13.6616009 L9.94290136,13.6616009 C9.59691216,13.6616009 9.26086518,13.7861724 8.99706498,14.0094736 C8.7336388,14.2351573 8.5588879,14.5469842 8.50393094,14.8894257 L8.46747614,15.0875475 L7.85503548,18.967156 L7.82719727,19.1096181 C7.81990631,19.1546759 7.80731284,19.1772048 7.78875403,19.1924449 C7.77077581,19.2071432 7.74834634,19.2153182 7.72512383,19.2156364 L4.73781858,19.2156364 Z" id="Path" fill="#253B80"></path>
                                <path d="M15.3843271,5.18130116 C15.3656423,5.29987757 15.3442883,5.42110374 15.320265,5.5456421 C14.494797,9.75278637 11.6707223,11.2061755 8.0638878,11.2061755 L6.22743847,11.2061755 C5.78634363,11.2061755 5.41464949,11.5241458 5.3459161,11.9560554 L4.40567007,17.8756021 L4.13941161,19.5535578 C4.11794645,19.6882558 4.15694942,19.8255317 4.24615211,19.9292445 C4.3353548,20.0329572 4.46581828,20.0927824 4.60319514,20.0927824 L7.86035689,20.0927824 C8.24606464,20.0927824 8.57371602,19.8145584 8.63444164,19.4369687 L8.66647273,19.2726841 L9.27973469,15.4093452 L9.31910625,15.197365 C9.37916454,14.8184504 9.70748325,14.5402264 10.093191,14.5402264 L10.5803305,14.5402264 C13.7360605,14.5402264 16.2064585,13.2683453 16.9284927,9.58783928 C17.2301189,8.05032049 17.0739673,6.76651549 16.2758592,5.86361238 C16.0229005,5.58430401 15.7207887,5.35309052 15.3843271,5.18130116 Z" id="Path" fill="#179BD7"></path>
                                <path d="M14.4684121,4.81958008 C14.2093177,4.74343304 13.9457446,4.68400107 13.6792694,4.64163967 C13.1527282,4.55942845 12.620575,4.51998339 12.0878644,4.52367918 L7.26510682,4.52367918 C6.88587081,4.52344169 6.5630715,4.80407638 6.50482716,5.1847911 L5.47887602,11.7865801 L5.44935696,11.9791823 C5.51539905,11.5449242 5.88339396,11.224549 6.31590521,11.2247683 L8.1211594,11.2247683 C11.6667259,11.2247683 14.442829,9.76192488 15.254275,5.53000882 C15.2785462,5.40471745 15.2988815,5.28275829 15.317249,5.16346491 C15.1031278,5.04938884 14.8799693,4.95375245 14.6501183,4.87756066 C14.5898588,4.85724736 14.5292823,4.83791801 14.4684121,4.81958008 L14.4684121,4.81958008 Z" id="Path" fill="#222D65"></path>
                                <path d="M6.33253972,5.01537738 C6.39083633,4.63701095 6.71704182,4.35811895 7.09991019,4.35930784 L11.9676476,4.35930784 C12.5443341,4.35930784 13.082619,4.39704342 13.573895,4.47648676 C13.9063389,4.52872886 14.234192,4.60686527 14.5544607,4.71018257 C14.7961262,4.79028793 15.0205771,4.8849579 15.2278134,4.99419249 C15.4714651,3.44041327 15.2258271,2.38249286 14.385626,1.42453865 C13.4593522,0.369928379 11.7875572,-0.0815745738 9.64832169,-0.0815745738 L3.43785146,-0.0815745738 C3.00086742,-0.0815745738 2.62810679,0.236198765 2.56057289,0.668502912 L-0.0262402431,17.0636211 C-0.0506242405,17.2176665 -0.00638428837,17.374668 0.0948422591,17.4933262 C0.196068807,17.6119844 0.344147785,17.68042 0.500126903,17.680631 L4.33433086,17.680631 L5.29701995,11.5734247 L6.33253972,5.01537738 Z" id="Path" fill="#253B80"></path>
                            </g>
                        </g>
                    </g>
                </g>
            </g>
        </g>
    </g>
</svg>