<?xml version="1.0" encoding="UTF-8"?>
<svg width="62px" height="20px" viewBox="0 0 62 20" version="1.1" xmlns="http://www.w3.org/2000/svg" xmlns:xlink="http://www.w3.org/1999/xlink">
    <title>F7C793AD-9CAA-4CB2-B0A4-9F5A02DF9AAE</title>
    <g id="home-+-interactions" stroke="none" stroke-width="1" fill="none" fill-rule="evenodd">
        <g id="1-home" transform="translate(-950.000000, -3725.000000)" fill-rule="nonzero">
            <g id="footer" transform="translate(0.000000, 2988.000000)">
                <g id="main" transform="translate(0.000000, 185.000000)">
                    <g id="payments" transform="translate(0.000000, 537.000000)">
                        <g id="payment-types" transform="translate(627.000000, 14.000000)">
                            <g id="visa" transform="translate(323.000000, 1.000000)">
                                <g id="Group" fill="#2566AF">
                                    <path d="M26.77558,19.6666408 L21.7357084,19.6666408 L24.8855634,0.345246402 L29.9259528,0.345246402 L26.77558,19.6666408 Z M17.4958575,0.345246402 L12.6910729,13.6346487 L12.1225145,10.7729281 L12.1230323,10.7739618 L10.4271955,2.08491614 C10.4271955,2.08491614 10.2221417,0.345246402 8.03645402,0.345246402 L0.0932062966,0.345246402 L0,0.672403545 C0,0.672403545 2.42905965,1.17683541 5.2718517,2.88084348 L9.65047639,19.6671577 L14.9016156,19.6671577 L22.9199461,0.345246402 L17.4958575,0.345246402 Z M57.1370133,19.6666408 L61.7647059,19.6666408 L57.7299089,0.344729566 L53.6785418,0.344729566 C51.8076843,0.344729566 51.3520091,1.78463447 51.3520091,1.78463447 L43.8354391,19.6666408 L49.0891674,19.6666408 L50.1398094,16.7966509 L56.5467067,16.7966509 L57.1370133,19.6666408 Z M51.5912386,12.8320025 L54.2393331,5.60146781 L55.7290804,12.8320025 L51.5912386,12.8320025 Z M44.2294946,4.99160142 L44.9487365,0.842442567 C44.9487365,0.842442567 42.7293911,-3.67234016e-15 40.4158036,-3.67234016e-15 C37.914768,-3.67234016e-15 31.9754557,1.09104065 31.9754557,6.39636148 C31.9754557,11.3879629 38.946251,11.4499832 38.946251,14.0718919 C38.946251,16.6938006 32.693662,16.2239967 30.6301781,14.5706386 L29.8809031,18.9089594 C29.8809031,18.9089594 32.1313173,20 35.569594,20 C39.0089064,20 44.1973902,18.2226012 44.1973902,13.3850169 C44.1973902,8.36137168 37.1639395,7.89363517 37.1639395,5.70948652 C37.1644573,3.52482105 42.0728045,3.80546296 44.2294946,4.99160142 L44.2294946,4.99160142 Z" id="Shape"></path>
                                </g>
                                <path d="M12.1568627,10.7843137 L10.4562936,2.12572808 C10.4562936,2.12572808 10.2506675,0.392156863 8.05888048,0.392156863 L0.0934663973,0.392156863 L0,0.718167136 C0,0.718167136 3.82848749,1.505124 7.50067839,4.45363714 C11.0118994,7.27184917 12.1568627,10.7843137 12.1568627,10.7843137 Z" id="Path" fill="#E6A540"></path>
                            </g>
                        </g>
                    </g>
                </g>
            </g>
        </g>
    </g>
</svg>