<?xml version="1.0" encoding="UTF-8"?>
<svg width="30px" height="30px" viewBox="0 0 30 30" version="1.1" xmlns="http://www.w3.org/2000/svg" xmlns:xlink="http://www.w3.org/1999/xlink">
    <title>7AE27E5A-146D-4668-AF42-AAA0C5B5C269</title>
    <g id="home-+-interactions" stroke="none" stroke-width="1" fill="none" fill-rule="evenodd">
        <g id="1-home" transform="translate(-225.000000, -3489.000000)" fill="#FFFFFF" fill-rule="nonzero">
            <g id="footer" transform="translate(0.000000, 2988.000000)">
                <g id="main" transform="translate(0.000000, 185.000000)">
                    <g id="column" transform="translate(225.000000, 50.000000)">
                        <g id="facebook-3" transform="translate(0.000000, 266.000000)">
                            <path d="M15,0 C23.2842712,0 30,6.71572875 30,15 C30,23.2842712 23.2842712,30 15,30 C6.71572875,30 0,23.2842712 0,15 C0,6.71572875 6.71572875,0 15,0 Z M19.9870011,4.57627119 L16.6466549,4.57627119 C14.6653537,4.57627119 12.461588,5.40785701 12.461588,8.27389917 C12.4712604,9.27253757 12.461588,10.2289404 12.461588,11.3053086 L10.1694915,11.3053086 L10.1694915,14.9451755 L12.5325187,14.9451755 L12.5325187,25.4237288 L16.8746977,25.4237288 L16.8746977,14.8760256 L19.7406883,14.8760256 L20,11.2950944 L16.7998775,11.2950944 C16.7998775,11.2950944 16.7999767,11.2730467 16.80014,11.2333856 L16.8007875,11.065997 C16.8011725,10.9603172 16.8016231,10.824985 16.8020213,10.6749665 L16.80294,10.1958186 C16.8033483,9.812161 16.8028277,9.4300279 16.7998775,9.23954584 C16.7998775,8.26874832 17.6675148,8.17771514 17.9601433,8.17151785 L18.3708544,8.17192214 C18.4293184,8.17195618 18.4899136,8.1719959 18.5518628,8.17203846 L19.9007333,8.17215195 C19.9346113,8.17205832 19.9636262,8.17194483 19.9870011,8.17180864 L19.9870011,4.57627119 Z" id="Combined-Shape"></path>
                        </g>
                    </g>
                </g>
            </g>
        </g>
    </g>
</svg>