<?xml version="1.0" encoding="UTF-8"?>
<svg width="30px" height="30px" viewBox="0 0 30 30" version="1.1" xmlns="http://www.w3.org/2000/svg" xmlns:xlink="http://www.w3.org/1999/xlink">
    <title>4AFB8F04-3312-44E2-883E-F752AA6776CD</title>
    <g id="home-+-interactions" stroke="none" stroke-width="1" fill="none" fill-rule="evenodd">
        <g id="1-home" transform="translate(-345.000000, -3489.000000)" fill="#FFFFFF" fill-rule="nonzero">
            <g id="footer" transform="translate(0.000000, 2988.000000)">
                <g id="main" transform="translate(0.000000, 185.000000)">
                    <g id="column" transform="translate(225.000000, 50.000000)">
                        <g id="socials" transform="translate(0.000000, 266.000000)">
                            <g id="instagram-glyph-1" transform="translate(120.000000, 0.000000)">
                                <path d="M10.0012117,15 C10.0012117,12.2386914 12.2391858,9.99959612 15.0006058,9.99959612 C17.7620259,9.99959612 20.0012117,12.2386914 20.0012117,15 C20.0012117,17.7613086 17.7620259,20.0004039 15.0006058,20.0004039 C12.2391858,20.0004039 10.0012117,17.7613086 10.0012117,15 M7.29795226,15 C7.29795226,19.2540388 10.7463953,22.7023425 15.0006058,22.7023425 C19.2548164,22.7023425 22.7032594,19.2540388 22.7032594,15 C22.7032594,10.7459612 19.2548164,7.29765751 15.0006058,7.29765751 C10.7463953,7.29765751 7.29795226,10.7459612 7.29795226,15 M21.2080456,6.99232633 C21.2080456,7.9858643 22.0138132,8.79281099 23.0086029,8.79281099 C24.002181,8.79281099 24.8091603,7.9858643 24.8091603,6.99232633 C24.8091603,5.99878837 24.0033927,5.19305331 23.0086029,5.19305331 C22.0138132,5.19305331 21.2080456,5.99878837 21.2080456,6.99232633 M8.93977947,27.2096123 C7.47728099,27.1429725 6.68241851,26.8994346 6.15412577,26.6934572 C5.45377439,26.4208401 4.95456198,26.0961228 4.4286926,25.5714863 C3.9040349,25.0468498 3.57809281,24.5476575 3.30667636,23.8473344 C3.10069066,23.319063 2.85714286,22.5242326 2.79050042,21.0617932 C2.71779959,19.4806139 2.70325942,19.0056543 2.70325942,15 C2.70325942,10.9943457 2.71901127,10.5205977 2.79050042,8.93820679 C2.85714286,7.47576737 3.10190234,6.68214863 3.30667636,6.15266559 C3.5793045,5.45234249 3.9040349,4.95315024 4.4286926,4.4273021 C4.9533503,3.90266559 5.4525627,3.57673667 6.15412577,3.30533118 C6.68241851,3.0993538 7.47728099,2.85581583 8.93977947,2.78917609 C10.5210227,2.71647819 10.9960015,2.70193861 15.0006058,2.70193861 C19.0064219,2.70193861 19.480189,2.71768982 21.0626439,2.78917609 C22.5251424,2.85581583 23.3187932,3.10056543 23.8482976,3.30533118 C24.548649,3.57673667 25.0478614,3.90266559 25.5737308,4.4273021 C26.0983885,4.95193861 26.4231189,5.45234249 26.695747,6.15266559 C26.9017327,6.680937 27.1452805,7.47576737 27.2119229,8.93820679 C27.2846238,10.5205977 27.2991639,10.9943457 27.2991639,15 C27.2991639,19.0044426 27.2846238,19.4794023 27.2119229,21.0617932 C27.1452805,22.5242326 26.900521,23.319063 26.695747,23.8473344 C26.4231189,24.5476575 26.0983885,25.0468498 25.5737308,25.5714863 C25.0490731,26.0961228 24.548649,26.4208401 23.8482976,26.6934572 C23.3200048,26.8994346 22.5251424,27.1429725 21.0626439,27.2096123 C19.4814007,27.2823102 19.0064219,27.2968498 15.0006058,27.2968498 C10.9960015,27.2968498 10.5210227,27.2823102 8.93977947,27.2096123 M8.81618805,0.0908723748 C7.21919302,0.163570275 6.12868048,0.416801292 5.17508785,0.787560582 C4.18877984,1.17043619 3.35272022,1.68416801 2.51787229,2.5177706 C1.68423604,3.35137318 1.17048346,4.18739903 0.787592391,5.17487884 C0.416818127,6.12843296 0.163576881,7.21890145 0.0908760451,8.81583199 C0.0169635284,10.4151858 0,10.9264943 0,15 C0,19.0735057 0.0169635284,19.5848142 0.0908760451,21.184168 C0.163576881,22.7810985 0.416818127,23.871567 0.787592391,24.8251212 C1.17048346,25.8113893 1.68302435,26.6486268 2.51787229,27.4822294 C3.35150854,28.315832 4.18756816,28.8283522 5.17508785,29.2124394 C6.12989216,29.5831987 7.21919302,29.8364297 8.81618805,29.9091276 C10.4168181,29.9818255 10.9269357,30 15.0006058,30 C19.0754877,30 19.5856052,29.9830372 21.1850236,29.9091276 C22.7820187,29.8364297 23.8725312,29.5831987 24.8261238,29.2124394 C25.8124318,28.8283522 26.6484915,28.315832 27.4833394,27.4822294 C28.3169756,26.6486268 28.8295165,25.8113893 29.2136193,24.8251212 C29.5843936,23.871567 29.8388465,22.7810985 29.9103356,21.184168 C29.9830365,19.5836026 30,19.0735057 30,15 C30,10.9264943 29.9830365,10.4151858 29.9103356,8.81583199 C29.8376348,7.21890145 29.5843936,6.12843296 29.2136193,5.17487884 C28.8295165,4.18861066 28.3169756,3.35258481 27.4833394,2.5177706 C26.6497031,1.68416801 25.8124318,1.17043619 24.8273355,0.787560582 C23.8725312,0.416801292 22.7820187,0.162358643 21.1862353,0.0908723748 C19.5868169,0.018174475 19.0754877,0 15.0018175,0 C10.9269357,0 10.4168181,0.0169628433 8.81618805,0.0908723748" id="Shape"></path>
                            </g>
                        </g>
                    </g>
                </g>
            </g>
        </g>
    </g>
</svg>