<?xml version="1.0" encoding="UTF-8"?>
<svg width="30px" height="30px" viewBox="0 0 30 30" version="1.1" xmlns="http://www.w3.org/2000/svg" xmlns:xlink="http://www.w3.org/1999/xlink">
    <title>1A9608EF-2697-4F84-B600-AB73B891551B</title>
    <g id="home-+-interactions" stroke="none" stroke-width="1" fill="none" fill-rule="evenodd">
        <g id="1-home" transform="translate(-265.000000, -3489.000000)" fill="#FFFFFF" fill-rule="nonzero">
            <g id="footer" transform="translate(0.000000, 2988.000000)">
                <g id="main" transform="translate(0.000000, 185.000000)">
                    <g id="column" transform="translate(225.000000, 50.000000)">
                        <g id="socials" transform="translate(0.000000, 266.000000)">
                            <g id="twitter-3" transform="translate(40.000000, 0.000000)">
                                <path d="M15,0 C23.2842712,0 30,6.71572875 30,15 C30,23.2842712 23.2842712,30 15,30 C6.71572875,30 0,23.2842712 0,15 C0,6.71572875 6.71572875,0 15,0 Z M18.843159,7.1559633 C16.6611134,7.1559633 14.8914694,8.92837139 14.8914694,11.1159856 C14.8914694,11.4259461 14.9263124,11.7283417 14.9932945,12.0186741 C11.7085183,11.8532664 8.79635237,10.2767305 6.8470862,7.88118107 C6.50671709,8.46624186 6.3118925,9.14647854 6.3118925,9.87225856 C6.3118925,11.2459707 7.0097206,12.4580064 8.07005814,13.167992 C7.44235588,13.1485026 6.82842956,12.9787392 6.27960028,12.6728934 L6.27960028,12.7229348 C6.27960028,14.641787 7.64173993,16.2417846 9.44989984,16.6056714 C9.11774407,16.6968603 8.76916161,16.7444994 8.40853972,16.7444994 C8.15356897,16.7444994 7.90619939,16.720322 7.66454344,16.6747787 C8.16749594,18.2475321 9.62712441,19.3923518 11.3561097,19.4247075 C10.0034588,20.4871301 8.29906248,21.1204433 6.4478973,21.1204433 C6.12905633,21.1204433 5.81393942,21.1013775 5.50458716,21.0640125 C7.25392728,22.1879262 9.33098491,22.8440367 11.5630248,22.8440367 C18.8323949,22.8440367 22.8080612,16.8098242 22.8080612,11.5768883 C22.8080612,11.4050913 22.8042862,11.2345721 22.7960218,11.0646662 C23.5706096,10.5033018 24.2392516,9.80823054 24.7706422,9.01199531 C24.061999,9.32706737 23.3008618,9.54006303 22.5005965,9.63580118 C23.3173395,9.14576293 23.9430331,8.36922584 24.2384584,7.44501789 C23.4626189,7.90672777 22.6135324,8.23177127 21.7280831,8.40602854 C21.0075025,7.63644307 19.9799673,7.1559633 18.843159,7.1559633 Z" id="Combined-Shape"></path>
                            </g>
                        </g>
                    </g>
                </g>
            </g>
        </g>
    </g>
</svg>